<?xml version="1.0" encoding="UTF-8" standalone="no"?><svg xmlns="http://www.w3.org/2000/svg" xmlns:xlink="http://www.w3.org/1999/xlink" contentScriptType="application/ecmascript" contentStyleType="text/css" height="529px" preserveAspectRatio="none" style="width:1030px;height:529px;background:#FFFFFF;" version="1.1" viewBox="0 0 1030 529" width="1030px" zoomAndPan="magnify"><defs><filter height="300%" id="f80ber3zdgy20" width="300%" x="-1" y="-1"><feGaussianBlur result="blurOut" stdDeviation="2.0"/><feColorMatrix in="blurOut" result="blurOut2" type="matrix" values="0 0 0 0 0 0 0 0 0 0 0 0 0 0 0 0 0 0 .4 0"/><feOffset dx="4.0" dy="4.0" in="blurOut2" result="blurOut3"/><feBlend in="SourceGraphic" in2="blurOut3" mode="normal"/></filter></defs><g><rect fill="#FFFFFF" filter="url(#f80ber3zdgy20)" height="325.8672" style="stroke:#A80036;stroke-width:1.0;" width="10" x="23" y="99.6094"/><rect fill="#FFFFFF" filter="url(#f80ber3zdgy20)" height="270.8125" style="stroke:#A80036;stroke-width:1.0;" width="10" x="232" y="154.6641"/><rect fill="#FFFFFF" filter="url(#f80ber3zdgy20)" height="249.4609" style="stroke:#A80036;stroke-width:1.0;" width="10" x="381.5" y="185.0156"/><rect fill="#FFFFFF" filter="url(#f80ber3zdgy20)" height="135.4063" style="stroke:#A80036;stroke-width:1.0;" width="10" x="667" y="245.7188"/><rect fill="#FFFFFF" filter="url(#f80ber3zdgy20)" height="74.7031" style="stroke:#A80036;stroke-width:1.0;" width="10" x="802" y="276.0703"/><rect fill="#FFFFFF" filter="url(#f80ber3zdgy20)" height="325.8672" style="stroke:#A80036;stroke-width:1.0;" width="10" x="948.5" y="99.6094"/><line style="stroke:#A80036;stroke-width:1.0;stroke-dasharray:5.0,5.0;" x1="28" x2="28" y1="89.6094" y2="443.4766"/><line style="stroke:#A80036;stroke-width:1.0;stroke-dasharray:5.0,5.0;" x1="236.5" x2="236.5" y1="89.6094" y2="443.4766"/><line style="stroke:#A80036;stroke-width:1.0;stroke-dasharray:5.0,5.0;" x1="386.5" x2="386.5" y1="89.6094" y2="443.4766"/><line style="stroke:#A80036;stroke-width:1.0;stroke-dasharray:5.0,5.0;" x1="546.5" x2="546.5" y1="89.6094" y2="443.4766"/><line style="stroke:#A80036;stroke-width:1.0;stroke-dasharray:5.0,5.0;" x1="671.5" x2="671.5" y1="89.6094" y2="443.4766"/><line style="stroke:#A80036;stroke-width:1.0;stroke-dasharray:5.0,5.0;" x1="806.5" x2="806.5" y1="89.6094" y2="443.4766"/><line style="stroke:#A80036;stroke-width:1.0;stroke-dasharray:5.0,5.0;" x1="953.5" x2="953.5" y1="89.6094" y2="443.4766"/><text fill="#000000" font-family="sans-serif" font-size="14" lengthAdjust="spacing" textLength="40" x="5" y="86.5332">Player</text><ellipse cx="28" cy="15" fill="#FEFECE" filter="url(#f80ber3zdgy20)" rx="8" ry="8" style="stroke:#A80036;stroke-width:2.0;"/><path d="M28,23 L28,50 M15,31 L41,31 M28,50 L15,65 M28,50 L41,65 " fill="none" filter="url(#f80ber3zdgy20)" style="stroke:#A80036;stroke-width:2.0;"/><text fill="#000000" font-family="sans-serif" font-size="14" lengthAdjust="spacing" textLength="40" x="5" y="457.0098">Player</text><ellipse cx="28" cy="470.0859" fill="#FEFECE" filter="url(#f80ber3zdgy20)" rx="8" ry="8" style="stroke:#A80036;stroke-width:2.0;"/><path d="M28,478.0859 L28,505.0859 M15,486.0859 L41,486.0859 M28,505.0859 L15,520.0859 M28,505.0859 L41,520.0859 " fill="none" filter="url(#f80ber3zdgy20)" style="stroke:#A80036;stroke-width:2.0;"/><rect fill="#FEFECE" filter="url(#f80ber3zdgy20)" height="49.2188" style="stroke:#A80036;stroke-width:1.5;" width="99" x="185.5" y="35.3906"/><text fill="#000000" font-family="sans-serif" font-size="14" lengthAdjust="spacing" textLength="61" x="204.5" y="56.9238">&lt;&lt;View&gt;&gt;</text><text fill="#000000" font-family="sans-serif" font-size="14" lengthAdjust="spacing" textLength="85" x="192.5" y="74.5332">UpdateProfile</text><rect fill="#FEFECE" filter="url(#f80ber3zdgy20)" height="49.2188" style="stroke:#A80036;stroke-width:1.5;" width="99" x="185.5" y="442.4766"/><text fill="#000000" font-family="sans-serif" font-size="14" lengthAdjust="spacing" textLength="61" x="204.5" y="464.0098">&lt;&lt;View&gt;&gt;</text><text fill="#000000" font-family="sans-serif" font-size="14" lengthAdjust="spacing" textLength="85" x="192.5" y="481.6191">UpdateProfile</text><rect fill="#FEFECE" filter="url(#f80ber3zdgy20)" height="49.2188" style="stroke:#A80036;stroke-width:1.5;" width="172" x="298.5" y="35.3906"/><text fill="#000000" font-family="sans-serif" font-size="14" lengthAdjust="spacing" textLength="105" x="332" y="56.9238">&lt;&lt;Component&gt;&gt;</text><text fill="#000000" font-family="sans-serif" font-size="14" lengthAdjust="spacing" textLength="158" x="305.5" y="74.5332">UpdateProfileComponent</text><rect fill="#FEFECE" filter="url(#f80ber3zdgy20)" height="49.2188" style="stroke:#A80036;stroke-width:1.5;" width="172" x="298.5" y="442.4766"/><text fill="#000000" font-family="sans-serif" font-size="14" lengthAdjust="spacing" textLength="105" x="332" y="464.0098">&lt;&lt;Component&gt;&gt;</text><text fill="#000000" font-family="sans-serif" font-size="14" lengthAdjust="spacing" textLength="158" x="305.5" y="481.6191">UpdateProfileComponent</text><rect fill="#FEFECE" filter="url(#f80ber3zdgy20)" height="49.2188" style="stroke:#A80036;stroke-width:1.5;" width="121" x="484.5" y="35.3906"/><text fill="#000000" font-family="sans-serif" font-size="14" lengthAdjust="spacing" textLength="62" x="514" y="56.9238">&lt;&lt;DTO&gt;&gt;</text><text fill="#000000" font-family="sans-serif" font-size="14" lengthAdjust="spacing" textLength="107" x="491.5" y="74.5332">UpdateProfileDto</text><rect fill="#FEFECE" filter="url(#f80ber3zdgy20)" height="49.2188" style="stroke:#A80036;stroke-width:1.5;" width="121" x="484.5" y="442.4766"/><text fill="#000000" font-family="sans-serif" font-size="14" lengthAdjust="spacing" textLength="62" x="514" y="464.0098">&lt;&lt;DTO&gt;&gt;</text><text fill="#000000" font-family="sans-serif" font-size="14" lengthAdjust="spacing" textLength="107" x="491.5" y="481.6191">UpdateProfileDto</text><rect fill="#FEFECE" filter="url(#f80ber3zdgy20)" height="49.2188" style="stroke:#A80036;stroke-width:1.5;" width="101" x="619.5" y="35.3906"/><text fill="#000000" font-family="sans-serif" font-size="14" lengthAdjust="spacing" textLength="79" x="630.5" y="56.9238">&lt;&lt;Service&gt;&gt;</text><text fill="#000000" font-family="sans-serif" font-size="14" lengthAdjust="spacing" textLength="87" x="626.5" y="74.5332">PlayerService</text><rect fill="#FEFECE" filter="url(#f80ber3zdgy20)" height="49.2188" style="stroke:#A80036;stroke-width:1.5;" width="101" x="619.5" y="442.4766"/><text fill="#000000" font-family="sans-serif" font-size="14" lengthAdjust="spacing" textLength="79" x="630.5" y="464.0098">&lt;&lt;Service&gt;&gt;</text><text fill="#000000" font-family="sans-serif" font-size="14" lengthAdjust="spacing" textLength="87" x="626.5" y="481.6191">PlayerService</text><rect fill="#FEFECE" filter="url(#f80ber3zdgy20)" height="49.2188" style="stroke:#A80036;stroke-width:1.5;" width="135" x="737.5" y="35.3906"/><text fill="#000000" font-family="sans-serif" font-size="14" lengthAdjust="spacing" textLength="94" x="758" y="56.9238">&lt;&lt;REST API&gt;&gt;</text><text fill="#000000" font-family="sans-serif" font-size="14" lengthAdjust="spacing" textLength="121" x="744.5" y="74.5332">API WebApp Visual</text><rect fill="#FEFECE" filter="url(#f80ber3zdgy20)" height="49.2188" style="stroke:#A80036;stroke-width:1.5;" width="135" x="737.5" y="442.4766"/><text fill="#000000" font-family="sans-serif" font-size="14" lengthAdjust="spacing" textLength="94" x="758" y="464.0098">&lt;&lt;REST API&gt;&gt;</text><text fill="#000000" font-family="sans-serif" font-size="14" lengthAdjust="spacing" textLength="121" x="744.5" y="481.6191">API WebApp Visual</text><rect fill="#FEFECE" filter="url(#f80ber3zdgy20)" height="49.2188" style="stroke:#A80036;stroke-width:1.5;" width="130" x="886.5" y="35.3906"/><text fill="#000000" font-family="sans-serif" font-size="14" lengthAdjust="spacing" textLength="116" x="893.5" y="56.9238">&lt;&lt;C4 Container&gt;&gt;</text><text fill="#000000" font-family="sans-serif" font-size="14" lengthAdjust="spacing" textLength="88" x="907.5" y="74.5332">SocialNetwork</text><rect fill="#FEFECE" filter="url(#f80ber3zdgy20)" height="49.2188" style="stroke:#A80036;stroke-width:1.5;" width="130" x="886.5" y="442.4766"/><text fill="#000000" font-family="sans-serif" font-size="14" lengthAdjust="spacing" textLength="116" x="893.5" y="464.0098">&lt;&lt;C4 Container&gt;&gt;</text><text fill="#000000" font-family="sans-serif" font-size="14" lengthAdjust="spacing" textLength="88" x="907.5" y="481.6191">SocialNetwork</text><rect fill="#FFFFFF" filter="url(#f80ber3zdgy20)" height="325.8672" style="stroke:#A80036;stroke-width:1.0;" width="10" x="23" y="99.6094"/><rect fill="#FFFFFF" filter="url(#f80ber3zdgy20)" height="270.8125" style="stroke:#A80036;stroke-width:1.0;" width="10" x="232" y="154.6641"/><rect fill="#FFFFFF" filter="url(#f80ber3zdgy20)" height="249.4609" style="stroke:#A80036;stroke-width:1.0;" width="10" x="381.5" y="185.0156"/><rect fill="#FFFFFF" filter="url(#f80ber3zdgy20)" height="135.4063" style="stroke:#A80036;stroke-width:1.0;" width="10" x="667" y="245.7188"/><rect fill="#FFFFFF" filter="url(#f80ber3zdgy20)" height="74.7031" style="stroke:#A80036;stroke-width:1.0;" width="10" x="802" y="276.0703"/><rect fill="#FFFFFF" filter="url(#f80ber3zdgy20)" height="325.8672" style="stroke:#A80036;stroke-width:1.0;" width="10" x="948.5" y="99.6094"/><polygon fill="#A80036" points="220,150.6641,230,154.6641,220,158.6641,224,154.6641" style="stroke:#A80036;stroke-width:1.0;"/><line style="stroke:#A80036;stroke-width:1.0;" x1="33" x2="226" y1="154.6641" y2="154.6641"/><text fill="#000000" font-family="sans-serif" font-size="13" lengthAdjust="spacing" textLength="129" x="40" y="117.1045">select new profile data</text><text fill="#000000" font-family="sans-serif" font-size="13" lengthAdjust="spacing" textLength="180" x="40" y="133.4561">(short/full name, social profiles,</text><text fill="#000000" font-family="sans-serif" font-size="13" lengthAdjust="spacing" textLength="86" x="40" y="149.8076">phone number)</text><polygon fill="#A80036" points="369.5,181.0156,379.5,185.0156,369.5,189.0156,373.5,185.0156" style="stroke:#A80036;stroke-width:1.0;"/><line style="stroke:#A80036;stroke-width:1.0;" x1="242" x2="375.5" y1="185.0156" y2="185.0156"/><text fill="#000000" font-family="sans-serif" font-size="13" lengthAdjust="spacing" textLength="83" x="249" y="180.1592">updateProfile()</text><polygon fill="#A80036" points="535,211.3672,545,215.3672,535,219.3672,539,215.3672" style="stroke:#A80036;stroke-width:1.0;"/><line style="stroke:#A80036;stroke-width:1.0;stroke-dasharray:2.0,2.0;" x1="391.5" x2="541" y1="215.3672" y2="215.3672"/><text fill="#000000" font-family="sans-serif" font-size="13" lengthAdjust="spacing" textLength="78" x="398.5" y="210.5107">dto = create()</text><polygon fill="#A80036" points="655,241.7188,665,245.7188,655,249.7188,659,245.7188" style="stroke:#A80036;stroke-width:1.0;"/><line style="stroke:#A80036;stroke-width:1.0;" x1="391.5" x2="661" y1="245.7188" y2="245.7188"/><text fill="#000000" font-family="sans-serif" font-size="13" lengthAdjust="spacing" textLength="101" x="398.5" y="240.8623">updateProfile(dto)</text><polygon fill="#A80036" points="790,272.0703,800,276.0703,790,280.0703,794,276.0703" style="stroke:#A80036;stroke-width:1.0;"/><line style="stroke:#A80036;stroke-width:1.0;" x1="677" x2="796" y1="276.0703" y2="276.0703"/><text fill="#000000" font-family="sans-serif" font-size="13" lengthAdjust="spacing" textLength="106" x="684" y="271.2139">PUT UpdateProfile</text><polygon fill="#A80036" points="936.5,302.4219,946.5,306.4219,936.5,310.4219,940.5,306.4219" style="stroke:#A80036;stroke-width:1.0;"/><line style="stroke:#A80036;stroke-width:1.0;" x1="812" x2="942.5" y1="306.4219" y2="306.4219"/><text fill="#000000" font-family="sans-serif" font-size="13" lengthAdjust="spacing" textLength="83" x="819" y="301.5654">updateProfile()</text><polygon fill="#A80036" points="823,316.4219,813,320.4219,823,324.4219,819,320.4219" style="stroke:#A80036;stroke-width:1.0;"/><line style="stroke:#A80036;stroke-width:1.0;stroke-dasharray:2.0,2.0;" x1="817" x2="947.5" y1="320.4219" y2="320.4219"/><polygon fill="#A80036" points="688,346.7734,678,350.7734,688,354.7734,684,350.7734" style="stroke:#A80036;stroke-width:1.0;"/><line style="stroke:#A80036;stroke-width:1.0;stroke-dasharray:2.0,2.0;" x1="682" x2="806" y1="350.7734" y2="350.7734"/><text fill="#000000" font-family="sans-serif" font-size="13" lengthAdjust="spacing" textLength="91" x="694" y="345.917">response JSON</text><polygon fill="#A80036" points="402.5,377.125,392.5,381.125,402.5,385.125,398.5,381.125" style="stroke:#A80036;stroke-width:1.0;"/><line style="stroke:#A80036;stroke-width:1.0;stroke-dasharray:2.0,2.0;" x1="396.5" x2="671" y1="381.125" y2="381.125"/><text fill="#000000" font-family="sans-serif" font-size="13" lengthAdjust="spacing" textLength="95" x="408.5" y="376.2686">updateProfileDto</text><polygon fill="#A80036" points="253,391.125,243,395.125,253,399.125,249,395.125" style="stroke:#A80036;stroke-width:1.0;"/><line style="stroke:#A80036;stroke-width:1.0;stroke-dasharray:2.0,2.0;" x1="247" x2="380.5" y1="395.125" y2="395.125"/><polygon fill="#A80036" points="39,421.4766,29,425.4766,39,429.4766,35,425.4766" style="stroke:#A80036;stroke-width:1.0;"/><line style="stroke:#A80036;stroke-width:1.0;stroke-dasharray:2.0,2.0;" x1="33" x2="236" y1="425.4766" y2="425.4766"/><text fill="#000000" font-family="sans-serif" font-size="13" lengthAdjust="spacing" textLength="152" x="45" y="420.6201">confirms the profile update</text><!--MD5=[4db2e799133044dd9acdc7d9ee828883]
@startuml

actor "Player" as P

participant "<<View>>\nUpdateProfile" as V
participant "<<Component>>\nUpdateProfileComponent" as CDC
participant "<<DTO>>\nUpdateProfileDto" as DTO
participant "<<Service>>\nPlayerService" as DRS
participant "<<REST API>>\nAPI WebApp Visual" as API
participant "<<C4 Container>>\nSocialNetwork" as SC

activate P
activate SC

P -> V : select new profile data\n(short/full name, social profiles,\nphone number)

activate V

V -> CDC : updateProfile()

activate CDC

CDC - -> DTO : dto = create()

CDC -> DRS : updateProfile(dto)

activate DRS

DRS -> API : PUT UpdateProfile

activate API

API -> SC : updateProfile()

SC - -> API

API - -> DRS : response JSON

deactivate API

DRS - -> CDC : updateProfileDto

deactivate DRS

CDC - -> V 

V - -> P : confirms the profile update

deactivate V 
deactivate SC
deactivate P

@enduml

PlantUML version 1.2021.14(Fri Nov 12 16:46:50 GMT 2021)
(GPL source distribution)
Java Runtime: Java(TM) SE Runtime Environment
JVM: Java HotSpot(TM) 64-Bit Server VM
Default Encoding: Cp1252
Language: en
Country: US
--></g></svg>