<?xml version="1.0" encoding="UTF-8" standalone="no"?><svg xmlns="http://www.w3.org/2000/svg" xmlns:xlink="http://www.w3.org/1999/xlink" contentScriptType="application/ecmascript" contentStyleType="text/css" height="512px" preserveAspectRatio="none" style="width:1268px;height:512px;background:#FFFFFF;" version="1.1" viewBox="0 0 1268 512" width="1268px" zoomAndPan="magnify"><defs><filter height="300%" id="f1e1g266a02rkg" width="300%" x="-1" y="-1"><feGaussianBlur result="blurOut" stdDeviation="2.0"/><feColorMatrix in="blurOut" result="blurOut2" type="matrix" values="0 0 0 0 0 0 0 0 0 0 0 0 0 0 0 0 0 0 .4 0"/><feOffset dx="4.0" dy="4.0" in="blurOut2" result="blurOut3"/><feBlend in="SourceGraphic" in2="blurOut3" mode="normal"/></filter></defs><g><rect fill="#FFFFFF" filter="url(#f1e1g266a02rkg)" height="309.5156" style="stroke:#A80036;stroke-width:1.0;" width="10" x="23" y="99.6094"/><rect fill="#FFFFFF" filter="url(#f1e1g266a02rkg)" height="270.8125" style="stroke:#A80036;stroke-width:1.0;" width="10" x="261" y="138.3125"/><rect fill="#FFFFFF" filter="url(#f1e1g266a02rkg)" height="249.4609" style="stroke:#A80036;stroke-width:1.0;" width="10" x="487" y="168.6641"/><rect fill="#FFFFFF" filter="url(#f1e1g266a02rkg)" height="135.4063" style="stroke:#A80036;stroke-width:1.0;" width="10" x="869.5" y="229.3672"/><rect fill="#FFFFFF" filter="url(#f1e1g266a02rkg)" height="74.7031" style="stroke:#A80036;stroke-width:1.0;" width="10" x="1026.5" y="259.7188"/><rect fill="#FFFFFF" filter="url(#f1e1g266a02rkg)" height="309.5156" style="stroke:#A80036;stroke-width:1.0;" width="10" x="1186.5" y="99.6094"/><line style="stroke:#A80036;stroke-width:1.0;stroke-dasharray:5.0,5.0;" x1="28" x2="28" y1="89.6094" y2="427.125"/><line style="stroke:#A80036;stroke-width:1.0;stroke-dasharray:5.0,5.0;" x1="265.5" x2="265.5" y1="89.6094" y2="427.125"/><line style="stroke:#A80036;stroke-width:1.0;stroke-dasharray:5.0,5.0;" x1="492" x2="492" y1="89.6094" y2="427.125"/><line style="stroke:#A80036;stroke-width:1.0;stroke-dasharray:5.0,5.0;" x1="700" x2="700" y1="89.6094" y2="427.125"/><line style="stroke:#A80036;stroke-width:1.0;stroke-dasharray:5.0,5.0;" x1="874" x2="874" y1="89.6094" y2="427.125"/><line style="stroke:#A80036;stroke-width:1.0;stroke-dasharray:5.0,5.0;" x1="1031" x2="1031" y1="89.6094" y2="427.125"/><line style="stroke:#A80036;stroke-width:1.0;stroke-dasharray:5.0,5.0;" x1="1191.5" x2="1191.5" y1="89.6094" y2="427.125"/><text fill="#000000" font-family="sans-serif" font-size="14" lengthAdjust="spacing" textLength="40" x="5" y="86.5332">Player</text><ellipse cx="28" cy="15" fill="#FEFECE" filter="url(#f1e1g266a02rkg)" rx="8" ry="8" style="stroke:#A80036;stroke-width:2.0;"/><path d="M28,23 L28,50 M15,31 L41,31 M28,50 L15,65 M28,50 L41,65 " fill="none" filter="url(#f1e1g266a02rkg)" style="stroke:#A80036;stroke-width:2.0;"/><text fill="#000000" font-family="sans-serif" font-size="14" lengthAdjust="spacing" textLength="40" x="5" y="440.6582">Player</text><ellipse cx="28" cy="453.7344" fill="#FEFECE" filter="url(#f1e1g266a02rkg)" rx="8" ry="8" style="stroke:#A80036;stroke-width:2.0;"/><path d="M28,461.7344 L28,488.7344 M15,469.7344 L41,469.7344 M28,488.7344 L15,503.7344 M28,488.7344 L41,503.7344 " fill="none" filter="url(#f1e1g266a02rkg)" style="stroke:#A80036;stroke-width:2.0;"/><rect fill="#FEFECE" filter="url(#f1e1g266a02rkg)" height="49.2188" style="stroke:#A80036;stroke-width:1.5;" width="147" x="190.5" y="35.3906"/><text fill="#000000" font-family="sans-serif" font-size="14" lengthAdjust="spacing" textLength="61" x="233.5" y="56.9238">&lt;&lt;View&gt;&gt;</text><text fill="#000000" font-family="sans-serif" font-size="14" lengthAdjust="spacing" textLength="133" x="197.5" y="74.5332">CreateDirectRequest</text><rect fill="#FEFECE" filter="url(#f1e1g266a02rkg)" height="49.2188" style="stroke:#A80036;stroke-width:1.5;" width="147" x="190.5" y="426.125"/><text fill="#000000" font-family="sans-serif" font-size="14" lengthAdjust="spacing" textLength="61" x="233.5" y="447.6582">&lt;&lt;View&gt;&gt;</text><text fill="#000000" font-family="sans-serif" font-size="14" lengthAdjust="spacing" textLength="133" x="197.5" y="465.2676">CreateDirectRequest</text><rect fill="#FEFECE" filter="url(#f1e1g266a02rkg)" height="49.2188" style="stroke:#A80036;stroke-width:1.5;" width="220" x="380" y="35.3906"/><text fill="#000000" font-family="sans-serif" font-size="14" lengthAdjust="spacing" textLength="105" x="437.5" y="56.9238">&lt;&lt;Component&gt;&gt;</text><text fill="#000000" font-family="sans-serif" font-size="14" lengthAdjust="spacing" textLength="206" x="387" y="74.5332">CreateDirectRequestComponent</text><rect fill="#FEFECE" filter="url(#f1e1g266a02rkg)" height="49.2188" style="stroke:#A80036;stroke-width:1.5;" width="220" x="380" y="426.125"/><text fill="#000000" font-family="sans-serif" font-size="14" lengthAdjust="spacing" textLength="105" x="437.5" y="447.6582">&lt;&lt;Component&gt;&gt;</text><text fill="#000000" font-family="sans-serif" font-size="14" lengthAdjust="spacing" textLength="206" x="387" y="465.2676">CreateDirectRequestComponent</text><rect fill="#FEFECE" filter="url(#f1e1g266a02rkg)" height="49.2188" style="stroke:#A80036;stroke-width:1.5;" width="169" x="614" y="35.3906"/><text fill="#000000" font-family="sans-serif" font-size="14" lengthAdjust="spacing" textLength="62" x="667.5" y="56.9238">&lt;&lt;DTO&gt;&gt;</text><text fill="#000000" font-family="sans-serif" font-size="14" lengthAdjust="spacing" textLength="155" x="621" y="74.5332">CreateDirectRequestDto</text><rect fill="#FEFECE" filter="url(#f1e1g266a02rkg)" height="49.2188" style="stroke:#A80036;stroke-width:1.5;" width="169" x="614" y="426.125"/><text fill="#000000" font-family="sans-serif" font-size="14" lengthAdjust="spacing" textLength="62" x="667.5" y="447.6582">&lt;&lt;DTO&gt;&gt;</text><text fill="#000000" font-family="sans-serif" font-size="14" lengthAdjust="spacing" textLength="155" x="621" y="465.2676">CreateDirectRequestDto</text><rect fill="#FEFECE" filter="url(#f1e1g266a02rkg)" height="49.2188" style="stroke:#A80036;stroke-width:1.5;" width="151" x="797" y="35.3906"/><text fill="#000000" font-family="sans-serif" font-size="14" lengthAdjust="spacing" textLength="79" x="833" y="56.9238">&lt;&lt;Service&gt;&gt;</text><text fill="#000000" font-family="sans-serif" font-size="14" lengthAdjust="spacing" textLength="137" x="804" y="74.5332">DirectRequestService</text><rect fill="#FEFECE" filter="url(#f1e1g266a02rkg)" height="49.2188" style="stroke:#A80036;stroke-width:1.5;" width="151" x="797" y="426.125"/><text fill="#000000" font-family="sans-serif" font-size="14" lengthAdjust="spacing" textLength="79" x="833" y="447.6582">&lt;&lt;Service&gt;&gt;</text><text fill="#000000" font-family="sans-serif" font-size="14" lengthAdjust="spacing" textLength="137" x="804" y="465.2676">DirectRequestService</text><rect fill="#FEFECE" filter="url(#f1e1g266a02rkg)" height="49.2188" style="stroke:#A80036;stroke-width:1.5;" width="135" x="962" y="35.3906"/><text fill="#000000" font-family="sans-serif" font-size="14" lengthAdjust="spacing" textLength="94" x="982.5" y="56.9238">&lt;&lt;REST API&gt;&gt;</text><text fill="#000000" font-family="sans-serif" font-size="14" lengthAdjust="spacing" textLength="121" x="969" y="74.5332">API WebApp Visual</text><rect fill="#FEFECE" filter="url(#f1e1g266a02rkg)" height="49.2188" style="stroke:#A80036;stroke-width:1.5;" width="135" x="962" y="426.125"/><text fill="#000000" font-family="sans-serif" font-size="14" lengthAdjust="spacing" textLength="94" x="982.5" y="447.6582">&lt;&lt;REST API&gt;&gt;</text><text fill="#000000" font-family="sans-serif" font-size="14" lengthAdjust="spacing" textLength="121" x="969" y="465.2676">API WebApp Visual</text><rect fill="#FEFECE" filter="url(#f1e1g266a02rkg)" height="49.2188" style="stroke:#A80036;stroke-width:1.5;" width="130" x="1124.5" y="35.3906"/><text fill="#000000" font-family="sans-serif" font-size="14" lengthAdjust="spacing" textLength="116" x="1131.5" y="56.9238">&lt;&lt;C4 Container&gt;&gt;</text><text fill="#000000" font-family="sans-serif" font-size="14" lengthAdjust="spacing" textLength="88" x="1145.5" y="74.5332">SocialNetwork</text><rect fill="#FEFECE" filter="url(#f1e1g266a02rkg)" height="49.2188" style="stroke:#A80036;stroke-width:1.5;" width="130" x="1124.5" y="426.125"/><text fill="#000000" font-family="sans-serif" font-size="14" lengthAdjust="spacing" textLength="116" x="1131.5" y="447.6582">&lt;&lt;C4 Container&gt;&gt;</text><text fill="#000000" font-family="sans-serif" font-size="14" lengthAdjust="spacing" textLength="88" x="1145.5" y="465.2676">SocialNetwork</text><rect fill="#FFFFFF" filter="url(#f1e1g266a02rkg)" height="309.5156" style="stroke:#A80036;stroke-width:1.0;" width="10" x="23" y="99.6094"/><rect fill="#FFFFFF" filter="url(#f1e1g266a02rkg)" height="270.8125" style="stroke:#A80036;stroke-width:1.0;" width="10" x="261" y="138.3125"/><rect fill="#FFFFFF" filter="url(#f1e1g266a02rkg)" height="249.4609" style="stroke:#A80036;stroke-width:1.0;" width="10" x="487" y="168.6641"/><rect fill="#FFFFFF" filter="url(#f1e1g266a02rkg)" height="135.4063" style="stroke:#A80036;stroke-width:1.0;" width="10" x="869.5" y="229.3672"/><rect fill="#FFFFFF" filter="url(#f1e1g266a02rkg)" height="74.7031" style="stroke:#A80036;stroke-width:1.0;" width="10" x="1026.5" y="259.7188"/><rect fill="#FFFFFF" filter="url(#f1e1g266a02rkg)" height="309.5156" style="stroke:#A80036;stroke-width:1.0;" width="10" x="1186.5" y="99.6094"/><polygon fill="#A80036" points="249,134.3125,259,138.3125,249,142.3125,253,138.3125" style="stroke:#A80036;stroke-width:1.0;"/><line style="stroke:#A80036;stroke-width:1.0;" x1="33" x2="255" y1="138.3125" y2="138.3125"/><text fill="#000000" font-family="sans-serif" font-size="13" lengthAdjust="spacing" textLength="207" x="40" y="117.1045">select a player, connection strength</text><text fill="#000000" font-family="sans-serif" font-size="13" lengthAdjust="spacing" textLength="50" x="40" y="133.4561">and tags</text><polygon fill="#A80036" points="475,164.6641,485,168.6641,475,172.6641,479,168.6641" style="stroke:#A80036;stroke-width:1.0;"/><line style="stroke:#A80036;stroke-width:1.0;" x1="271" x2="481" y1="168.6641" y2="168.6641"/><text fill="#000000" font-family="sans-serif" font-size="13" lengthAdjust="spacing" textLength="197" x="278" y="163.8076">createDirectRequestFormSubmit()</text><polygon fill="#A80036" points="688.5,195.0156,698.5,199.0156,688.5,203.0156,692.5,199.0156" style="stroke:#A80036;stroke-width:1.0;"/><line style="stroke:#A80036;stroke-width:1.0;stroke-dasharray:2.0,2.0;" x1="497" x2="694.5" y1="199.0156" y2="199.0156"/><text fill="#000000" font-family="sans-serif" font-size="13" lengthAdjust="spacing" textLength="78" x="504" y="194.1592">dto = create()</text><polygon fill="#A80036" points="857.5,225.3672,867.5,229.3672,857.5,233.3672,861.5,229.3672" style="stroke:#A80036;stroke-width:1.0;"/><line style="stroke:#A80036;stroke-width:1.0;" x1="497" x2="863.5" y1="229.3672" y2="229.3672"/><text fill="#000000" font-family="sans-serif" font-size="13" lengthAdjust="spacing" textLength="144" x="504" y="224.5107">createDirectRequest(dto)</text><polygon fill="#A80036" points="1014.5,255.7188,1024.5,259.7188,1014.5,263.7188,1018.5,259.7188" style="stroke:#A80036;stroke-width:1.0;"/><line style="stroke:#A80036;stroke-width:1.0;" x1="879.5" x2="1020.5" y1="259.7188" y2="259.7188"/><text fill="#000000" font-family="sans-serif" font-size="13" lengthAdjust="spacing" textLength="121" x="886.5" y="254.8623">POST DirectRequest</text><polygon fill="#A80036" points="1174.5,286.0703,1184.5,290.0703,1174.5,294.0703,1178.5,290.0703" style="stroke:#A80036;stroke-width:1.0;"/><line style="stroke:#A80036;stroke-width:1.0;" x1="1036.5" x2="1180.5" y1="290.0703" y2="290.0703"/><text fill="#000000" font-family="sans-serif" font-size="13" lengthAdjust="spacing" textLength="126" x="1043.5" y="285.2139">createDirectRequest()</text><polygon fill="#A80036" points="1047.5,300.0703,1037.5,304.0703,1047.5,308.0703,1043.5,304.0703" style="stroke:#A80036;stroke-width:1.0;"/><line style="stroke:#A80036;stroke-width:1.0;stroke-dasharray:2.0,2.0;" x1="1041.5" x2="1185.5" y1="304.0703" y2="304.0703"/><polygon fill="#A80036" points="890.5,330.4219,880.5,334.4219,890.5,338.4219,886.5,334.4219" style="stroke:#A80036;stroke-width:1.0;"/><line style="stroke:#A80036;stroke-width:1.0;stroke-dasharray:2.0,2.0;" x1="884.5" x2="1030.5" y1="334.4219" y2="334.4219"/><text fill="#000000" font-family="sans-serif" font-size="13" lengthAdjust="spacing" textLength="91" x="896.5" y="329.5654">response JSON</text><polygon fill="#A80036" points="508,360.7734,498,364.7734,508,368.7734,504,364.7734" style="stroke:#A80036;stroke-width:1.0;"/><line style="stroke:#A80036;stroke-width:1.0;stroke-dasharray:2.0,2.0;" x1="502" x2="873.5" y1="364.7734" y2="364.7734"/><text fill="#000000" font-family="sans-serif" font-size="13" lengthAdjust="spacing" textLength="100" x="514" y="359.917">directRequestDto</text><polygon fill="#A80036" points="282,374.7734,272,378.7734,282,382.7734,278,378.7734" style="stroke:#A80036;stroke-width:1.0;"/><line style="stroke:#A80036;stroke-width:1.0;stroke-dasharray:2.0,2.0;" x1="276" x2="486" y1="378.7734" y2="378.7734"/><polygon fill="#A80036" points="39,405.125,29,409.125,39,413.125,35,409.125" style="stroke:#A80036;stroke-width:1.0;"/><line style="stroke:#A80036;stroke-width:1.0;stroke-dasharray:2.0,2.0;" x1="33" x2="265" y1="409.125" y2="409.125"/><text fill="#000000" font-family="sans-serif" font-size="13" lengthAdjust="spacing" textLength="204" x="45" y="404.2686">confirms the creation of the request</text><!--MD5=[3d9d2fb20bc39a8952293b3f073da930]
@startuml

actor "Player" as P

participant "<<View>>\nCreateDirectRequest" as V
participant "<<Component>>\nCreateDirectRequestComponent" as CDC
participant "<<DTO>>\nCreateDirectRequestDto" as DTO
participant "<<Service>>\nDirectRequestService" as DRS
participant "<<REST API>>\nAPI WebApp Visual" as API
participant "<<C4 Container>>\nSocialNetwork" as SC

activate P
activate SC

P -> V : select a player, connection strength\nand tags

activate V

V -> CDC : createDirectRequestFormSubmit()

activate CDC

CDC - -> DTO : dto = create()

CDC -> DRS : createDirectRequest(dto)

activate DRS

DRS -> API : POST DirectRequest

activate API

API -> SC : createDirectRequest()

SC - -> API

API - -> DRS : response JSON

deactivate API

DRS - -> CDC : directRequestDto

deactivate DRS

CDC - -> V 

V - -> P : confirms the creation of the request

deactivate V 
deactivate SC
deactivate P

@enduml

PlantUML version 1.2021.14(Fri Nov 12 16:46:50 GMT 2021)
(GPL source distribution)
Java Runtime: Java(TM) SE Runtime Environment
JVM: Java HotSpot(TM) 64-Bit Server VM
Default Encoding: Cp1252
Language: pt
Country: PT
--></g></svg>