<?xml version="1.0" encoding="UTF-8" standalone="no"?><svg xmlns="http://www.w3.org/2000/svg" xmlns:xlink="http://www.w3.org/1999/xlink" contentScriptType="application/ecmascript" contentStyleType="text/css" height="543px" preserveAspectRatio="none" style="width:1174px;height:543px;background:#FFFFFF;" version="1.1" viewBox="0 0 1174 543" width="1174px" zoomAndPan="magnify"><defs><filter height="300%" id="fzylrbsl9t5a4" width="300%" x="-1" y="-1"><feGaussianBlur result="blurOut" stdDeviation="2.0"/><feColorMatrix in="blurOut" result="blurOut2" type="matrix" values="0 0 0 0 0 0 0 0 0 0 0 0 0 0 0 0 0 0 .4 0"/><feOffset dx="4.0" dy="4.0" in="blurOut2" result="blurOut3"/><feBlend in="SourceGraphic" in2="blurOut3" mode="normal"/></filter></defs><g><rect fill="#FFFFFF" filter="url(#fzylrbsl9t5a4)" height="339.8672" style="stroke:#A80036;stroke-width:1.0;" width="10" x="60" y="99.6094"/><rect fill="#FFFFFF" filter="url(#fzylrbsl9t5a4)" height="317.5156" style="stroke:#A80036;stroke-width:1.0;" width="10" x="317" y="121.9609"/><rect fill="#FFFFFF" filter="url(#fzylrbsl9t5a4)" height="317.5156" style="stroke:#A80036;stroke-width:1.0;" width="10" x="473" y="121.9609"/><rect fill="#FFFFFF" filter="url(#fzylrbsl9t5a4)" height="135.4063" style="stroke:#A80036;stroke-width:1.0;" width="10" x="747.5" y="273.7188"/><rect fill="#FFFFFF" filter="url(#fzylrbsl9t5a4)" height="74.7031" style="stroke:#A80036;stroke-width:1.0;" width="10" x="879.5" y="304.0703"/><rect fill="#FFFFFF" filter="url(#fzylrbsl9t5a4)" height="14" style="stroke:#A80036;stroke-width:1.0;" width="10" x="1092.5" y="334.4219"/><line style="stroke:#A80036;stroke-width:1.0;stroke-dasharray:5.0,5.0;" x1="65" x2="65" y1="89.6094" y2="457.4766"/><line style="stroke:#A80036;stroke-width:1.0;stroke-dasharray:5.0,5.0;" x1="321.5" x2="321.5" y1="89.6094" y2="457.4766"/><line style="stroke:#A80036;stroke-width:1.0;stroke-dasharray:5.0,5.0;" x1="478" x2="478" y1="89.6094" y2="457.4766"/><line style="stroke:#A80036;stroke-width:1.0;stroke-dasharray:5.0,5.0;" x1="623" x2="623" y1="89.6094" y2="457.4766"/><line style="stroke:#A80036;stroke-width:1.0;stroke-dasharray:5.0,5.0;" x1="752" x2="752" y1="89.6094" y2="457.4766"/><line style="stroke:#A80036;stroke-width:1.0;stroke-dasharray:5.0,5.0;" x1="884" x2="884" y1="89.6094" y2="457.4766"/><line style="stroke:#A80036;stroke-width:1.0;stroke-dasharray:5.0,5.0;" x1="1097.5" x2="1097.5" y1="89.6094" y2="457.4766"/><text fill="#000000" font-family="sans-serif" font-size="14" lengthAdjust="spacing" textLength="114" x="5" y="86.5332">Unregistered User</text><ellipse cx="65" cy="15" fill="#FEFECE" filter="url(#fzylrbsl9t5a4)" rx="8" ry="8" style="stroke:#A80036;stroke-width:2.0;"/><path d="M65,23 L65,50 M52,31 L78,31 M65,50 L52,65 M65,50 L78,65 " fill="none" filter="url(#fzylrbsl9t5a4)" style="stroke:#A80036;stroke-width:2.0;"/><text fill="#000000" font-family="sans-serif" font-size="14" lengthAdjust="spacing" textLength="114" x="5" y="471.0098">Unregistered User</text><ellipse cx="65" cy="484.0859" fill="#FEFECE" filter="url(#fzylrbsl9t5a4)" rx="8" ry="8" style="stroke:#A80036;stroke-width:2.0;"/><path d="M65,492.0859 L65,519.0859 M52,500.0859 L78,500.0859 M65,519.0859 L52,534.0859 M65,519.0859 L78,534.0859 " fill="none" filter="url(#fzylrbsl9t5a4)" style="stroke:#A80036;stroke-width:2.0;"/><rect fill="#FEFECE" filter="url(#fzylrbsl9t5a4)" height="49.2188" style="stroke:#A80036;stroke-width:1.5;" width="75" x="282.5" y="35.3906"/><text fill="#000000" font-family="sans-serif" font-size="14" lengthAdjust="spacing" textLength="61" x="289.5" y="56.9238">&lt;&lt;View&gt;&gt;</text><text fill="#000000" font-family="sans-serif" font-size="14" lengthAdjust="spacing" textLength="43" x="298.5" y="74.5332">Sign in</text><rect fill="#FEFECE" filter="url(#fzylrbsl9t5a4)" height="49.2188" style="stroke:#A80036;stroke-width:1.5;" width="75" x="282.5" y="456.4766"/><text fill="#000000" font-family="sans-serif" font-size="14" lengthAdjust="spacing" textLength="61" x="289.5" y="478.0098">&lt;&lt;View&gt;&gt;</text><text fill="#000000" font-family="sans-serif" font-size="14" lengthAdjust="spacing" textLength="43" x="298.5" y="495.6191">Sign in</text><rect fill="#FEFECE" filter="url(#fzylrbsl9t5a4)" height="49.2188" style="stroke:#A80036;stroke-width:1.5;" width="134" x="409" y="35.3906"/><text fill="#000000" font-family="sans-serif" font-size="14" lengthAdjust="spacing" textLength="105" x="423.5" y="56.9238">&lt;&lt;Component&gt;&gt;</text><text fill="#000000" font-family="sans-serif" font-size="14" lengthAdjust="spacing" textLength="120" x="416" y="74.5332">Sign In Component</text><rect fill="#FEFECE" filter="url(#fzylrbsl9t5a4)" height="49.2188" style="stroke:#A80036;stroke-width:1.5;" width="134" x="409" y="456.4766"/><text fill="#000000" font-family="sans-serif" font-size="14" lengthAdjust="spacing" textLength="105" x="423.5" y="478.0098">&lt;&lt;Component&gt;&gt;</text><text fill="#000000" font-family="sans-serif" font-size="14" lengthAdjust="spacing" textLength="120" x="416" y="495.6191">Sign In Component</text><rect fill="#FEFECE" filter="url(#fzylrbsl9t5a4)" height="49.2188" style="stroke:#A80036;stroke-width:1.5;" width="129" x="557" y="35.3906"/><text fill="#000000" font-family="sans-serif" font-size="14" lengthAdjust="spacing" textLength="62" x="590.5" y="56.9238">&lt;&lt;DTO&gt;&gt;</text><text fill="#000000" font-family="sans-serif" font-size="14" lengthAdjust="spacing" textLength="115" x="564" y="74.5332">RegisterPlayerDto</text><rect fill="#FEFECE" filter="url(#fzylrbsl9t5a4)" height="49.2188" style="stroke:#A80036;stroke-width:1.5;" width="129" x="557" y="456.4766"/><text fill="#000000" font-family="sans-serif" font-size="14" lengthAdjust="spacing" textLength="62" x="590.5" y="478.0098">&lt;&lt;DTO&gt;&gt;</text><text fill="#000000" font-family="sans-serif" font-size="14" lengthAdjust="spacing" textLength="115" x="564" y="495.6191">RegisterPlayerDto</text><rect fill="#FEFECE" filter="url(#fzylrbsl9t5a4)" height="49.2188" style="stroke:#A80036;stroke-width:1.5;" width="101" x="700" y="35.3906"/><text fill="#000000" font-family="sans-serif" font-size="14" lengthAdjust="spacing" textLength="79" x="711" y="56.9238">&lt;&lt;Service&gt;&gt;</text><text fill="#000000" font-family="sans-serif" font-size="14" lengthAdjust="spacing" textLength="87" x="707" y="74.5332">PlayerService</text><rect fill="#FEFECE" filter="url(#fzylrbsl9t5a4)" height="49.2188" style="stroke:#A80036;stroke-width:1.5;" width="101" x="700" y="456.4766"/><text fill="#000000" font-family="sans-serif" font-size="14" lengthAdjust="spacing" textLength="79" x="711" y="478.0098">&lt;&lt;Service&gt;&gt;</text><text fill="#000000" font-family="sans-serif" font-size="14" lengthAdjust="spacing" textLength="87" x="707" y="495.6191">PlayerService</text><rect fill="#FEFECE" filter="url(#fzylrbsl9t5a4)" height="49.2188" style="stroke:#A80036;stroke-width:1.5;" width="135" x="815" y="35.3906"/><text fill="#000000" font-family="sans-serif" font-size="14" lengthAdjust="spacing" textLength="94" x="835.5" y="56.9238">&lt;&lt;REST API&gt;&gt;</text><text fill="#000000" font-family="sans-serif" font-size="14" lengthAdjust="spacing" textLength="121" x="822" y="74.5332">API WebApp Visual</text><rect fill="#FEFECE" filter="url(#fzylrbsl9t5a4)" height="49.2188" style="stroke:#A80036;stroke-width:1.5;" width="135" x="815" y="456.4766"/><text fill="#000000" font-family="sans-serif" font-size="14" lengthAdjust="spacing" textLength="94" x="835.5" y="478.0098">&lt;&lt;REST API&gt;&gt;</text><text fill="#000000" font-family="sans-serif" font-size="14" lengthAdjust="spacing" textLength="121" x="822" y="495.6191">API WebApp Visual</text><rect fill="#FEFECE" filter="url(#fzylrbsl9t5a4)" height="49.2188" style="stroke:#A80036;stroke-width:1.5;" width="130" x="1030.5" y="35.3906"/><text fill="#000000" font-family="sans-serif" font-size="14" lengthAdjust="spacing" textLength="116" x="1037.5" y="56.9238">&lt;&lt;C4 Container&gt;&gt;</text><text fill="#000000" font-family="sans-serif" font-size="14" lengthAdjust="spacing" textLength="88" x="1051.5" y="74.5332">SocialNetwork</text><rect fill="#FEFECE" filter="url(#fzylrbsl9t5a4)" height="49.2188" style="stroke:#A80036;stroke-width:1.5;" width="130" x="1030.5" y="456.4766"/><text fill="#000000" font-family="sans-serif" font-size="14" lengthAdjust="spacing" textLength="116" x="1037.5" y="478.0098">&lt;&lt;C4 Container&gt;&gt;</text><text fill="#000000" font-family="sans-serif" font-size="14" lengthAdjust="spacing" textLength="88" x="1051.5" y="495.6191">SocialNetwork</text><rect fill="#FFFFFF" filter="url(#fzylrbsl9t5a4)" height="339.8672" style="stroke:#A80036;stroke-width:1.0;" width="10" x="60" y="99.6094"/><rect fill="#FFFFFF" filter="url(#fzylrbsl9t5a4)" height="317.5156" style="stroke:#A80036;stroke-width:1.0;" width="10" x="317" y="121.9609"/><rect fill="#FFFFFF" filter="url(#fzylrbsl9t5a4)" height="317.5156" style="stroke:#A80036;stroke-width:1.0;" width="10" x="473" y="121.9609"/><rect fill="#FFFFFF" filter="url(#fzylrbsl9t5a4)" height="135.4063" style="stroke:#A80036;stroke-width:1.0;" width="10" x="747.5" y="273.7188"/><rect fill="#FFFFFF" filter="url(#fzylrbsl9t5a4)" height="74.7031" style="stroke:#A80036;stroke-width:1.0;" width="10" x="879.5" y="304.0703"/><rect fill="#FFFFFF" filter="url(#fzylrbsl9t5a4)" height="14" style="stroke:#A80036;stroke-width:1.0;" width="10" x="1092.5" y="334.4219"/><polygon fill="#A80036" points="305,117.9609,315,121.9609,305,125.9609,309,121.9609" style="stroke:#A80036;stroke-width:1.0;"/><line style="stroke:#A80036;stroke-width:1.0;" x1="70" x2="311" y1="121.9609" y2="121.9609"/><text fill="#000000" font-family="sans-serif" font-size="13" lengthAdjust="spacing" textLength="111" x="77" y="117.1045">register as a player</text><polygon fill="#A80036" points="81,148.3125,71,152.3125,81,156.3125,77,152.3125" style="stroke:#A80036;stroke-width:1.0;"/><line style="stroke:#A80036;stroke-width:1.0;stroke-dasharray:2.0,2.0;" x1="75" x2="316" y1="152.3125" y2="152.3125"/><text fill="#000000" font-family="sans-serif" font-size="13" lengthAdjust="spacing" textLength="145" x="87" y="147.4561">shows a registration form</text><polygon fill="#A80036" points="305,178.6641,315,182.6641,305,186.6641,309,182.6641" style="stroke:#A80036;stroke-width:1.0;"/><line style="stroke:#A80036;stroke-width:1.0;" x1="70" x2="311" y1="182.6641" y2="182.6641"/><text fill="#000000" font-family="sans-serif" font-size="13" lengthAdjust="spacing" textLength="223" x="77" y="177.8076">fills the form with the data and submits</text><polygon fill="#A80036" points="461,209.0156,471,213.0156,461,217.0156,465,213.0156" style="stroke:#A80036;stroke-width:1.0;"/><line style="stroke:#A80036;stroke-width:1.0;" x1="327" x2="467" y1="213.0156" y2="213.0156"/><text fill="#000000" font-family="sans-serif" font-size="13" lengthAdjust="spacing" textLength="122" x="334" y="208.1592">registerFormSubmit()</text><polygon fill="#A80036" points="611.5,239.3672,621.5,243.3672,611.5,247.3672,615.5,243.3672" style="stroke:#A80036;stroke-width:1.0;"/><line style="stroke:#A80036;stroke-width:1.0;stroke-dasharray:2.0,2.0;" x1="483" x2="617.5" y1="243.3672" y2="243.3672"/><text fill="#000000" font-family="sans-serif" font-size="13" lengthAdjust="spacing" textLength="78" x="490" y="238.5107">dto = create()</text><polygon fill="#A80036" points="735.5,269.7188,745.5,273.7188,735.5,277.7188,739.5,273.7188" style="stroke:#A80036;stroke-width:1.0;"/><line style="stroke:#A80036;stroke-width:1.0;" x1="483" x2="741.5" y1="273.7188" y2="273.7188"/><text fill="#000000" font-family="sans-serif" font-size="13" lengthAdjust="spacing" textLength="106" x="490" y="268.8623">registerPlayer(dto)</text><polygon fill="#A80036" points="867.5,300.0703,877.5,304.0703,867.5,308.0703,871.5,304.0703" style="stroke:#A80036;stroke-width:1.0;"/><line style="stroke:#A80036;stroke-width:1.0;" x1="757.5" x2="873.5" y1="304.0703" y2="304.0703"/><text fill="#000000" font-family="sans-serif" font-size="13" lengthAdjust="spacing" textLength="76" x="764.5" y="299.2139">POST Player</text><polygon fill="#A80036" points="1080.5,330.4219,1090.5,334.4219,1080.5,338.4219,1084.5,334.4219" style="stroke:#A80036;stroke-width:1.0;"/><line style="stroke:#A80036;stroke-width:1.0;" x1="889.5" x2="1086.5" y1="334.4219" y2="334.4219"/><text fill="#000000" font-family="sans-serif" font-size="13" lengthAdjust="spacing" textLength="184" x="896.5" y="329.5654">Create(CreateUserAsPlayerDto)</text><polygon fill="#A80036" points="900.5,344.4219,890.5,348.4219,900.5,352.4219,896.5,348.4219" style="stroke:#A80036;stroke-width:1.0;"/><line style="stroke:#A80036;stroke-width:1.0;stroke-dasharray:2.0,2.0;" x1="894.5" x2="1096.5" y1="348.4219" y2="348.4219"/><polygon fill="#A80036" points="768.5,374.7734,758.5,378.7734,768.5,382.7734,764.5,378.7734" style="stroke:#A80036;stroke-width:1.0;"/><line style="stroke:#A80036;stroke-width:1.0;stroke-dasharray:2.0,2.0;" x1="762.5" x2="883.5" y1="378.7734" y2="378.7734"/><text fill="#000000" font-family="sans-serif" font-size="13" lengthAdjust="spacing" textLength="91" x="774.5" y="373.917">response JSON</text><polygon fill="#A80036" points="494,405.125,484,409.125,494,413.125,490,409.125" style="stroke:#A80036;stroke-width:1.0;"/><line style="stroke:#A80036;stroke-width:1.0;stroke-dasharray:2.0,2.0;" x1="488" x2="751.5" y1="409.125" y2="409.125"/><text fill="#000000" font-family="sans-serif" font-size="13" lengthAdjust="spacing" textLength="100" x="500" y="404.2686">playerCreatedDto</text><polygon fill="#A80036" points="76,435.4766,66,439.4766,76,443.4766,72,439.4766" style="stroke:#A80036;stroke-width:1.0;"/><line style="stroke:#A80036;stroke-width:1.0;stroke-dasharray:2.0,2.0;" x1="70" x2="321" y1="439.4766" y2="439.4766"/><text fill="#000000" font-family="sans-serif" font-size="13" lengthAdjust="spacing" textLength="139" x="82" y="434.6201">confirms the registration</text><!--MD5=[5b491ecf91f661e24664f948b2e446b1]
@startuml

actor "Unregistered User" as UNU
participant "<<View>>\nSign in" as SI
participant "<<Component>>\nSign In Component" as SC
participant "<<DTO>>\nRegisterPlayerDto" as RPD
participant "<<Service>>\nPlayerService" as PS
participant "<<REST API>>\nAPI WebApp Visual" as API
participant "<<C4 Container>>\nSocialNetwork" as SN

activate UNU

UNU -> SI : register as a player 

activate SI

activate SC

SI - -> UNU : shows a registration form 

UNU -> SI : fills the form with the data and submits

SI -> SC : registerFormSubmit()

SC - -> RPD : dto = create()

SC -> PS : registerPlayer(dto)

activate PS

PS -> API: POST Player

activate API
API -> SN: Create(CreateUserAsPlayerDto)

activate SN
SN - -> API
deactivate SN

API - -> PS : response JSON
deactivate API

PS - -> SC : playerCreatedDto

deactivate PS

SI - -> UNU : confirms the registration

deactivate SC 
deactivate SI 
deactivate UNU


@enduml

PlantUML version 1.2021.14(Fri Nov 12 16:46:50 GMT 2021)
(GPL source distribution)
Java Runtime: Java(TM) SE Runtime Environment
JVM: Java HotSpot(TM) 64-Bit Server VM
Default Encoding: Cp1252
Language: pt
Country: PT
--></g></svg>