<?xml version="1.0" encoding="UTF-8" standalone="no"?><svg xmlns="http://www.w3.org/2000/svg" xmlns:xlink="http://www.w3.org/1999/xlink" contentScriptType="application/ecmascript" contentStyleType="text/css" height="482px" preserveAspectRatio="none" style="width:945px;height:482px;background:#FFFFFF;" version="1.1" viewBox="0 0 945 482" width="945px" zoomAndPan="magnify"><defs><filter height="300%" id="fkmbjyvdyl0ql" width="300%" x="-1" y="-1"><feGaussianBlur result="blurOut" stdDeviation="2.0"/><feColorMatrix in="blurOut" result="blurOut2" type="matrix" values="0 0 0 0 0 0 0 0 0 0 0 0 0 0 0 0 0 0 .4 0"/><feOffset dx="4.0" dy="4.0" in="blurOut2" result="blurOut3"/><feBlend in="SourceGraphic" in2="blurOut3" mode="normal"/></filter></defs><g><rect fill="#FFFFFF" filter="url(#fkmbjyvdyl0ql)" height="279.1641" style="stroke:#A80036;stroke-width:1.0;" width="10" x="23" y="99.6094"/><rect fill="#FFFFFF" filter="url(#fkmbjyvdyl0ql)" height="256.8125" style="stroke:#A80036;stroke-width:1.0;" width="10" x="206" y="121.9609"/><rect fill="#FFFFFF" filter="url(#fkmbjyvdyl0ql)" height="235.4609" style="stroke:#A80036;stroke-width:1.0;" width="10" x="361.5" y="152.3125"/><rect fill="#FFFFFF" filter="url(#fkmbjyvdyl0ql)" height="135.4063" style="stroke:#A80036;stroke-width:1.0;" width="10" x="534.5" y="182.6641"/><rect fill="#FFFFFF" filter="url(#fkmbjyvdyl0ql)" height="74.7031" style="stroke:#A80036;stroke-width:1.0;" width="10" x="685.5" y="213.0156"/><rect fill="#FFFFFF" filter="url(#fkmbjyvdyl0ql)" height="279.1641" style="stroke:#A80036;stroke-width:1.0;" width="10" x="863.5" y="99.6094"/><line style="stroke:#A80036;stroke-width:1.0;stroke-dasharray:5.0,5.0;" x1="28" x2="28" y1="89.6094" y2="396.7734"/><line style="stroke:#A80036;stroke-width:1.0;stroke-dasharray:5.0,5.0;" x1="210.5" x2="210.5" y1="89.6094" y2="396.7734"/><line style="stroke:#A80036;stroke-width:1.0;stroke-dasharray:5.0,5.0;" x1="366.5" x2="366.5" y1="89.6094" y2="396.7734"/><line style="stroke:#A80036;stroke-width:1.0;stroke-dasharray:5.0,5.0;" x1="539" x2="539" y1="89.6094" y2="396.7734"/><line style="stroke:#A80036;stroke-width:1.0;stroke-dasharray:5.0,5.0;" x1="690" x2="690" y1="89.6094" y2="396.7734"/><line style="stroke:#A80036;stroke-width:1.0;stroke-dasharray:5.0,5.0;" x1="868.5" x2="868.5" y1="89.6094" y2="396.7734"/><text fill="#000000" font-family="sans-serif" font-size="14" lengthAdjust="spacing" textLength="40" x="5" y="86.5332">Player</text><ellipse cx="28" cy="15" fill="#FEFECE" filter="url(#fkmbjyvdyl0ql)" rx="8" ry="8" style="stroke:#A80036;stroke-width:2.0;"/><path d="M28,23 L28,50 M15,31 L41,31 M28,50 L15,65 M28,50 L41,65 " fill="none" filter="url(#fkmbjyvdyl0ql)" style="stroke:#A80036;stroke-width:2.0;"/><text fill="#000000" font-family="sans-serif" font-size="14" lengthAdjust="spacing" textLength="40" x="5" y="410.3066">Player</text><ellipse cx="28" cy="423.3828" fill="#FEFECE" filter="url(#fkmbjyvdyl0ql)" rx="8" ry="8" style="stroke:#A80036;stroke-width:2.0;"/><path d="M28,431.3828 L28,458.3828 M15,439.3828 L41,439.3828 M28,458.3828 L15,473.3828 M28,458.3828 L41,473.3828 " fill="none" filter="url(#fkmbjyvdyl0ql)" style="stroke:#A80036;stroke-width:2.0;"/><rect fill="#FEFECE" filter="url(#fkmbjyvdyl0ql)" height="49.2188" style="stroke:#A80036;stroke-width:1.5;" width="105" x="156.5" y="35.3906"/><text fill="#000000" font-family="sans-serif" font-size="14" lengthAdjust="spacing" textLength="61" x="178.5" y="56.9238">&lt;&lt;View&gt;&gt;</text><text fill="#000000" font-family="sans-serif" font-size="14" lengthAdjust="spacing" textLength="91" x="163.5" y="74.5332">NetworkListing</text><rect fill="#FEFECE" filter="url(#fkmbjyvdyl0ql)" height="49.2188" style="stroke:#A80036;stroke-width:1.5;" width="105" x="156.5" y="395.7734"/><text fill="#000000" font-family="sans-serif" font-size="14" lengthAdjust="spacing" textLength="61" x="178.5" y="417.3066">&lt;&lt;View&gt;&gt;</text><text fill="#000000" font-family="sans-serif" font-size="14" lengthAdjust="spacing" textLength="91" x="163.5" y="434.916">NetworkListing</text><rect fill="#FEFECE" filter="url(#fkmbjyvdyl0ql)" height="49.2188" style="stroke:#A80036;stroke-width:1.5;" width="178" x="275.5" y="35.3906"/><text fill="#000000" font-family="sans-serif" font-size="14" lengthAdjust="spacing" textLength="105" x="312" y="56.9238">&lt;&lt;Component&gt;&gt;</text><text fill="#000000" font-family="sans-serif" font-size="14" lengthAdjust="spacing" textLength="164" x="282.5" y="74.5332">NetworkListingComponent</text><rect fill="#FEFECE" filter="url(#fkmbjyvdyl0ql)" height="49.2188" style="stroke:#A80036;stroke-width:1.5;" width="178" x="275.5" y="395.7734"/><text fill="#000000" font-family="sans-serif" font-size="14" lengthAdjust="spacing" textLength="105" x="312" y="417.3066">&lt;&lt;Component&gt;&gt;</text><text fill="#000000" font-family="sans-serif" font-size="14" lengthAdjust="spacing" textLength="164" x="282.5" y="434.916">NetworkListingComponent</text><rect fill="#FEFECE" filter="url(#fkmbjyvdyl0ql)" height="49.2188" style="stroke:#A80036;stroke-width:1.5;" width="139" x="468" y="35.3906"/><text fill="#000000" font-family="sans-serif" font-size="14" lengthAdjust="spacing" textLength="79" x="498" y="56.9238">&lt;&lt;Service&gt;&gt;</text><text fill="#000000" font-family="sans-serif" font-size="14" lengthAdjust="spacing" textLength="125" x="475" y="74.5332">RelationshipService</text><rect fill="#FEFECE" filter="url(#fkmbjyvdyl0ql)" height="49.2188" style="stroke:#A80036;stroke-width:1.5;" width="139" x="468" y="395.7734"/><text fill="#000000" font-family="sans-serif" font-size="14" lengthAdjust="spacing" textLength="79" x="498" y="417.3066">&lt;&lt;Service&gt;&gt;</text><text fill="#000000" font-family="sans-serif" font-size="14" lengthAdjust="spacing" textLength="125" x="475" y="434.916">RelationshipService</text><rect fill="#FEFECE" filter="url(#fkmbjyvdyl0ql)" height="49.2188" style="stroke:#A80036;stroke-width:1.5;" width="135" x="621" y="35.3906"/><text fill="#000000" font-family="sans-serif" font-size="14" lengthAdjust="spacing" textLength="94" x="641.5" y="56.9238">&lt;&lt;REST API&gt;&gt;</text><text fill="#000000" font-family="sans-serif" font-size="14" lengthAdjust="spacing" textLength="121" x="628" y="74.5332">API WebApp Visual</text><rect fill="#FEFECE" filter="url(#fkmbjyvdyl0ql)" height="49.2188" style="stroke:#A80036;stroke-width:1.5;" width="135" x="621" y="395.7734"/><text fill="#000000" font-family="sans-serif" font-size="14" lengthAdjust="spacing" textLength="94" x="641.5" y="417.3066">&lt;&lt;REST API&gt;&gt;</text><text fill="#000000" font-family="sans-serif" font-size="14" lengthAdjust="spacing" textLength="121" x="628" y="434.916">API WebApp Visual</text><rect fill="#FEFECE" filter="url(#fkmbjyvdyl0ql)" height="49.2188" style="stroke:#A80036;stroke-width:1.5;" width="130" x="801.5" y="35.3906"/><text fill="#000000" font-family="sans-serif" font-size="14" lengthAdjust="spacing" textLength="116" x="808.5" y="56.9238">&lt;&lt;C4 Container&gt;&gt;</text><text fill="#000000" font-family="sans-serif" font-size="14" lengthAdjust="spacing" textLength="88" x="822.5" y="74.5332">SocialNetwork</text><rect fill="#FEFECE" filter="url(#fkmbjyvdyl0ql)" height="49.2188" style="stroke:#A80036;stroke-width:1.5;" width="130" x="801.5" y="395.7734"/><text fill="#000000" font-family="sans-serif" font-size="14" lengthAdjust="spacing" textLength="116" x="808.5" y="417.3066">&lt;&lt;C4 Container&gt;&gt;</text><text fill="#000000" font-family="sans-serif" font-size="14" lengthAdjust="spacing" textLength="88" x="822.5" y="434.916">SocialNetwork</text><rect fill="#FFFFFF" filter="url(#fkmbjyvdyl0ql)" height="279.1641" style="stroke:#A80036;stroke-width:1.0;" width="10" x="23" y="99.6094"/><rect fill="#FFFFFF" filter="url(#fkmbjyvdyl0ql)" height="256.8125" style="stroke:#A80036;stroke-width:1.0;" width="10" x="206" y="121.9609"/><rect fill="#FFFFFF" filter="url(#fkmbjyvdyl0ql)" height="235.4609" style="stroke:#A80036;stroke-width:1.0;" width="10" x="361.5" y="152.3125"/><rect fill="#FFFFFF" filter="url(#fkmbjyvdyl0ql)" height="135.4063" style="stroke:#A80036;stroke-width:1.0;" width="10" x="534.5" y="182.6641"/><rect fill="#FFFFFF" filter="url(#fkmbjyvdyl0ql)" height="74.7031" style="stroke:#A80036;stroke-width:1.0;" width="10" x="685.5" y="213.0156"/><rect fill="#FFFFFF" filter="url(#fkmbjyvdyl0ql)" height="279.1641" style="stroke:#A80036;stroke-width:1.0;" width="10" x="863.5" y="99.6094"/><polygon fill="#A80036" points="194,117.9609,204,121.9609,194,125.9609,198,121.9609" style="stroke:#A80036;stroke-width:1.0;"/><line style="stroke:#A80036;stroke-width:1.0;" x1="33" x2="200" y1="121.9609" y2="121.9609"/><text fill="#000000" font-family="sans-serif" font-size="13" lengthAdjust="spacing" textLength="100" x="40" y="117.1045">selects the depth</text><polygon fill="#A80036" points="349.5,148.3125,359.5,152.3125,349.5,156.3125,353.5,152.3125" style="stroke:#A80036;stroke-width:1.0;"/><line style="stroke:#A80036;stroke-width:1.0;" x1="216" x2="355.5" y1="152.3125" y2="152.3125"/><text fill="#000000" font-family="sans-serif" font-size="13" lengthAdjust="spacing" textLength="111" x="223" y="147.4561">getNetworkListing()</text><polygon fill="#A80036" points="522.5,178.6641,532.5,182.6641,522.5,186.6641,526.5,182.6641" style="stroke:#A80036;stroke-width:1.0;"/><line style="stroke:#A80036;stroke-width:1.0;" x1="371.5" x2="528.5" y1="182.6641" y2="182.6641"/><text fill="#000000" font-family="sans-serif" font-size="13" lengthAdjust="spacing" textLength="144" x="378.5" y="177.8076">getNetwork(email, depth)</text><polygon fill="#A80036" points="673.5,209.0156,683.5,213.0156,673.5,217.0156,677.5,213.0156" style="stroke:#A80036;stroke-width:1.0;"/><line style="stroke:#A80036;stroke-width:1.0;" x1="544.5" x2="679.5" y1="213.0156" y2="213.0156"/><text fill="#000000" font-family="sans-serif" font-size="13" lengthAdjust="spacing" textLength="77" x="551.5" y="208.1592">GET Network</text><polygon fill="#A80036" points="851.5,239.3672,861.5,243.3672,851.5,247.3672,855.5,243.3672" style="stroke:#A80036;stroke-width:1.0;"/><line style="stroke:#A80036;stroke-width:1.0;" x1="695.5" x2="857.5" y1="243.3672" y2="243.3672"/><text fill="#000000" font-family="sans-serif" font-size="13" lengthAdjust="spacing" textLength="144" x="702.5" y="238.5107">getNetwork(email, depth)</text><polygon fill="#A80036" points="706.5,253.3672,696.5,257.3672,706.5,261.3672,702.5,257.3672" style="stroke:#A80036;stroke-width:1.0;"/><line style="stroke:#A80036;stroke-width:1.0;stroke-dasharray:2.0,2.0;" x1="700.5" x2="862.5" y1="257.3672" y2="257.3672"/><polygon fill="#A80036" points="555.5,283.7188,545.5,287.7188,555.5,291.7188,551.5,287.7188" style="stroke:#A80036;stroke-width:1.0;"/><line style="stroke:#A80036;stroke-width:1.0;stroke-dasharray:2.0,2.0;" x1="549.5" x2="689.5" y1="287.7188" y2="287.7188"/><text fill="#000000" font-family="sans-serif" font-size="13" lengthAdjust="spacing" textLength="91" x="561.5" y="282.8623">response JSON</text><polygon fill="#A80036" points="382.5,314.0703,372.5,318.0703,382.5,322.0703,378.5,318.0703" style="stroke:#A80036;stroke-width:1.0;"/><line style="stroke:#A80036;stroke-width:1.0;stroke-dasharray:2.0,2.0;" x1="376.5" x2="538.5" y1="318.0703" y2="318.0703"/><text fill="#000000" font-family="sans-serif" font-size="13" lengthAdjust="spacing" textLength="65" x="388.5" y="313.2139">networkDto</text><polygon fill="#A80036" points="227,328.0703,217,332.0703,227,336.0703,223,332.0703" style="stroke:#A80036;stroke-width:1.0;"/><line style="stroke:#A80036;stroke-width:1.0;stroke-dasharray:2.0,2.0;" x1="221" x2="360.5" y1="332.0703" y2="332.0703"/><polygon fill="#A80036" points="39,374.7734,29,378.7734,39,382.7734,35,378.7734" style="stroke:#A80036;stroke-width:1.0;"/><line style="stroke:#A80036;stroke-width:1.0;stroke-dasharray:2.0,2.0;" x1="33" x2="210" y1="378.7734" y2="378.7734"/><text fill="#000000" font-family="sans-serif" font-size="13" lengthAdjust="spacing" textLength="149" x="45" y="357.5654">shows player's network at</text><text fill="#000000" font-family="sans-serif" font-size="13" lengthAdjust="spacing" textLength="100" x="45" y="373.917">the chosen depth</text><!--MD5=[caae7c10fd25055f8e9815c8835a41ed]
@startuml

actor "Player" as P

participant "<<View>>\nNetworkListing" as V
participant "<<Component>>\nNetworkListingComponent" as CDC
participant "<<Service>>\nRelationshipService" as DRS
participant "<<REST API>>\nAPI WebApp Visual" as API
participant "<<C4 Container>>\nSocialNetwork" as SC

activate P
activate SC

P -> V : selects the depth

activate V

V -> CDC : getNetworkListing()

activate CDC


CDC -> DRS : getNetwork(email, depth)

activate DRS

DRS -> API : GET Network

activate API

API -> SC : getNetwork(email, depth)

SC - -> API

API - -> DRS : response JSON

deactivate API

DRS - -> CDC : networkDto

deactivate DRS

CDC - -> V 

V - -> P : shows player's network at\nthe chosen depth

deactivate V 
deactivate SC
deactivate P

@enduml

PlantUML version 1.2021.14(Fri Nov 12 16:46:50 GMT 2021)
(GPL source distribution)
Java Runtime: Java(TM) SE Runtime Environment
JVM: Java HotSpot(TM) 64-Bit Server VM
Default Encoding: Cp1252
Language: en
Country: US
--></g></svg>