<?xml version="1.0" encoding="UTF-8" standalone="no"?><svg xmlns="http://www.w3.org/2000/svg" xmlns:xlink="http://www.w3.org/1999/xlink" contentScriptType="application/ecmascript" contentStyleType="text/css" height="1058px" preserveAspectRatio="none" style="width:1951px;height:1058px;background:#FFFFFF;" version="1.1" viewBox="0 0 1951 1058" width="1951px" zoomAndPan="magnify"><defs><filter height="300%" id="fiigu62r0t20t" width="300%" x="-1" y="-1"><feGaussianBlur result="blurOut" stdDeviation="2.0"/><feColorMatrix in="blurOut" result="blurOut2" type="matrix" values="0 0 0 0 0 0 0 0 0 0 0 0 0 0 0 0 0 0 .4 0"/><feOffset dx="4.0" dy="4.0" in="blurOut2" result="blurOut3"/><feBlend in="SourceGraphic" in2="blurOut3" mode="normal"/></filter></defs><g><rect fill="#FFFFFF" filter="url(#fiigu62r0t20t)" height="854.7891" style="stroke:#A80036;stroke-width:1.0;" width="10" x="23" y="99.6094"/><rect fill="#FFFFFF" filter="url(#fiigu62r0t20t)" height="832.4375" style="stroke:#A80036;stroke-width:1.0;" width="10" x="179" y="121.9609"/><rect fill="#FFFFFF" filter="url(#fiigu62r0t20t)" height="30.3516" style="stroke:#A80036;stroke-width:1.0;" width="10" x="325.5" y="152.3125"/><rect fill="#FFFFFF" filter="url(#fiigu62r0t20t)" height="214.4609" style="stroke:#A80036;stroke-width:1.0;" width="10" x="473.5" y="182.6641"/><rect fill="#FFFFFF" filter="url(#fiigu62r0t20t)" height="435.8672" style="stroke:#A80036;stroke-width:1.0;" width="10" x="637" y="488.1797"/><rect fill="#FFFFFF" filter="url(#fiigu62r0t20t)" height="153.7578" style="stroke:#A80036;stroke-width:1.0;" width="10" x="895" y="213.0156"/><rect fill="#FFFFFF" filter="url(#fiigu62r0t20t)" height="444.8672" style="stroke:#A80036;stroke-width:1.0;" width="10" x="895" y="518.5313"/><rect fill="#FFFFFF" filter="url(#fiigu62r0t20t)" height="30.3516" style="stroke:#A80036;stroke-width:1.0;" width="10" x="1161" y="243.3672"/><rect fill="#FFFFFF" filter="url(#fiigu62r0t20t)" height="149.4063" style="stroke:#A80036;stroke-width:1.0;" width="10" x="1161" y="548.8828"/><rect fill="#FFFFFF" filter="url(#fiigu62r0t20t)" height="165.0547" style="stroke:#A80036;stroke-width:1.0;" width="10" x="1401.5" y="728.6406"/><rect fill="#FFFFFF" filter="url(#fiigu62r0t20t)" height="30" style="stroke:#A80036;stroke-width:1.0;" width="10" x="1722.5" y="789.3438"/><rect fill="#FFFFFF" filter="url(#fiigu62r0t20t)" height="30" style="stroke:#A80036;stroke-width:1.0;" width="10" x="1878.5" y="849.6953"/><rect fill="#FFFFFF" filter="url(#fiigu62r0t20t)" height="48.7031" style="stroke:#000000;stroke-width:2.0;" width="513.5" x="815.5" y="288.7188"/><line style="stroke:#A80036;stroke-width:1.0;stroke-dasharray:5.0,5.0;" x1="28" x2="28" y1="89.6094" y2="972.3984"/><line style="stroke:#A80036;stroke-width:1.0;stroke-dasharray:5.0,5.0;" x1="184" x2="184" y1="89.6094" y2="972.3984"/><line style="stroke:#A80036;stroke-width:1.0;stroke-dasharray:5.0,5.0;" x1="330" x2="330" y1="89.6094" y2="972.3984"/><line style="stroke:#A80036;stroke-width:1.0;stroke-dasharray:5.0,5.0;" x1="478" x2="478" y1="89.6094" y2="972.3984"/><line style="stroke:#A80036;stroke-width:1.0;stroke-dasharray:5.0,5.0;" x1="642" x2="642" y1="89.6094" y2="972.3984"/><line style="stroke:#A80036;stroke-width:1.0;stroke-dasharray:5.0,5.0;" x1="899.5" x2="899.5" y1="89.6094" y2="972.3984"/><line style="stroke:#A80036;stroke-width:1.0;stroke-dasharray:5.0,5.0;" x1="1166" x2="1166" y1="89.6094" y2="972.3984"/><line style="stroke:#A80036;stroke-width:1.0;stroke-dasharray:5.0,5.0;" x1="1279" x2="1279" y1="89.6094" y2="972.3984"/><line style="stroke:#A80036;stroke-width:1.0;stroke-dasharray:5.0,5.0;" x1="1406" x2="1406" y1="89.6094" y2="972.3984"/><line style="stroke:#A80036;stroke-width:1.0;stroke-dasharray:5.0,5.0;" x1="1575.5" x2="1575.5" y1="89.6094" y2="972.3984"/><line style="stroke:#A80036;stroke-width:1.0;stroke-dasharray:5.0,5.0;" x1="1727.5" x2="1727.5" y1="89.6094" y2="972.3984"/><line style="stroke:#A80036;stroke-width:1.0;stroke-dasharray:5.0,5.0;" x1="1883.5" x2="1883.5" y1="89.6094" y2="972.3984"/><text fill="#000000" font-family="sans-serif" font-size="14" lengthAdjust="spacing" textLength="40" x="5" y="86.5332">Player</text><ellipse cx="28" cy="15" fill="#FEFECE" filter="url(#fiigu62r0t20t)" rx="8" ry="8" style="stroke:#A80036;stroke-width:2.0;"/><path d="M28,23 L28,50 M15,31 L41,31 M28,50 L15,65 M28,50 L41,65 " fill="none" filter="url(#fiigu62r0t20t)" style="stroke:#A80036;stroke-width:2.0;"/><text fill="#000000" font-family="sans-serif" font-size="14" lengthAdjust="spacing" textLength="40" x="5" y="985.9316">Player</text><ellipse cx="28" cy="999.0078" fill="#FEFECE" filter="url(#fiigu62r0t20t)" rx="8" ry="8" style="stroke:#A80036;stroke-width:2.0;"/><path d="M28,1007.0078 L28,1034.0078 M15,1015.0078 L41,1015.0078 M28,1034.0078 L15,1049.0078 M28,1034.0078 L41,1049.0078 " fill="none" filter="url(#fiigu62r0t20t)" style="stroke:#A80036;stroke-width:2.0;"/><rect fill="#FEFECE" filter="url(#fiigu62r0t20t)" height="49.2188" style="stroke:#A80036;stroke-width:1.5;" width="130" x="117" y="35.3906"/><text fill="#000000" font-family="sans-serif" font-size="14" lengthAdjust="spacing" textLength="116" x="124" y="56.9238">&lt;&lt;C4 Container&gt;&gt;</text><text fill="#000000" font-family="sans-serif" font-size="14" lengthAdjust="spacing" textLength="78" x="143" y="74.5332">Visualization</text><rect fill="#FEFECE" filter="url(#fiigu62r0t20t)" height="49.2188" style="stroke:#A80036;stroke-width:1.5;" width="130" x="117" y="971.3984"/><text fill="#000000" font-family="sans-serif" font-size="14" lengthAdjust="spacing" textLength="116" x="124" y="992.9316">&lt;&lt;C4 Container&gt;&gt;</text><text fill="#000000" font-family="sans-serif" font-size="14" lengthAdjust="spacing" textLength="78" x="143" y="1010.541">Visualization</text><rect fill="#FEFECE" filter="url(#fiigu62r0t20t)" height="49.2188" style="stroke:#A80036;stroke-width:1.5;" width="135" x="261" y="35.3906"/><text fill="#000000" font-family="sans-serif" font-size="14" lengthAdjust="spacing" textLength="94" x="281.5" y="56.9238">&lt;&lt;REST API&gt;&gt;</text><text fill="#000000" font-family="sans-serif" font-size="14" lengthAdjust="spacing" textLength="121" x="268" y="74.5332">API WebApp Visual</text><rect fill="#FEFECE" filter="url(#fiigu62r0t20t)" height="49.2188" style="stroke:#A80036;stroke-width:1.5;" width="135" x="261" y="971.3984"/><text fill="#000000" font-family="sans-serif" font-size="14" lengthAdjust="spacing" textLength="94" x="281.5" y="992.9316">&lt;&lt;REST API&gt;&gt;</text><text fill="#000000" font-family="sans-serif" font-size="14" lengthAdjust="spacing" textLength="121" x="268" y="1010.541">API WebApp Visual</text><rect fill="#FEFECE" filter="url(#fiigu62r0t20t)" height="49.2188" style="stroke:#A80036;stroke-width:1.5;" width="133" x="410" y="35.3906"/><text fill="#000000" font-family="sans-serif" font-size="14" lengthAdjust="spacing" textLength="119" x="417" y="56.9238">&lt;&lt;API Controller&gt;&gt;</text><text fill="#000000" font-family="sans-serif" font-size="14" lengthAdjust="spacing" textLength="102" x="425.5" y="74.5332">PlayerController</text><rect fill="#FEFECE" filter="url(#fiigu62r0t20t)" height="49.2188" style="stroke:#A80036;stroke-width:1.5;" width="133" x="410" y="971.3984"/><text fill="#000000" font-family="sans-serif" font-size="14" lengthAdjust="spacing" textLength="119" x="417" y="992.9316">&lt;&lt;API Controller&gt;&gt;</text><text fill="#000000" font-family="sans-serif" font-size="14" lengthAdjust="spacing" textLength="102" x="425.5" y="1010.541">PlayerController</text><rect fill="#FEFECE" filter="url(#fiigu62r0t20t)" height="49.2188" style="stroke:#A80036;stroke-width:1.5;" width="166" x="557" y="35.3906"/><text fill="#000000" font-family="sans-serif" font-size="14" lengthAdjust="spacing" textLength="119" x="580.5" y="56.9238">&lt;&lt;API Controller&gt;&gt;</text><text fill="#000000" font-family="sans-serif" font-size="14" lengthAdjust="spacing" textLength="152" x="564" y="74.5332">DirectRequestController</text><rect fill="#FEFECE" filter="url(#fiigu62r0t20t)" height="49.2188" style="stroke:#A80036;stroke-width:1.5;" width="166" x="557" y="971.3984"/><text fill="#000000" font-family="sans-serif" font-size="14" lengthAdjust="spacing" textLength="119" x="580.5" y="992.9316">&lt;&lt;API Controller&gt;&gt;</text><text fill="#000000" font-family="sans-serif" font-size="14" lengthAdjust="spacing" textLength="152" x="564" y="1010.541">DirectRequestController</text><rect fill="#FEFECE" filter="url(#fiigu62r0t20t)" height="49.2188" style="stroke:#A80036;stroke-width:1.5;" width="145" x="825.5" y="35.3906"/><text fill="#000000" font-family="sans-serif" font-size="14" lengthAdjust="spacing" textLength="131" x="832.5" y="56.9238">&lt;&lt;Domain Service&gt;&gt;</text><text fill="#000000" font-family="sans-serif" font-size="14" lengthAdjust="spacing" textLength="87" x="854.5" y="74.5332">PlayerService</text><rect fill="#FEFECE" filter="url(#fiigu62r0t20t)" height="49.2188" style="stroke:#A80036;stroke-width:1.5;" width="145" x="825.5" y="971.3984"/><text fill="#000000" font-family="sans-serif" font-size="14" lengthAdjust="spacing" textLength="131" x="832.5" y="992.9316">&lt;&lt;Domain Service&gt;&gt;</text><text fill="#000000" font-family="sans-serif" font-size="14" lengthAdjust="spacing" textLength="87" x="854.5" y="1010.541">PlayerService</text><rect fill="#FEFECE" filter="url(#fiigu62r0t20t)" height="49.2188" style="stroke:#A80036;stroke-width:1.5;" width="122" x="1103" y="35.3906"/><text fill="#000000" font-family="sans-serif" font-size="14" lengthAdjust="spacing" textLength="106" x="1111" y="56.9238">&lt;&lt;Persistence&gt;&gt;</text><text fill="#000000" font-family="sans-serif" font-size="14" lengthAdjust="spacing" textLength="108" x="1110" y="74.5332">PlayerRepository</text><rect fill="#FEFECE" filter="url(#fiigu62r0t20t)" height="49.2188" style="stroke:#A80036;stroke-width:1.5;" width="122" x="1103" y="971.3984"/><text fill="#000000" font-family="sans-serif" font-size="14" lengthAdjust="spacing" textLength="106" x="1111" y="992.9316">&lt;&lt;Persistence&gt;&gt;</text><text fill="#000000" font-family="sans-serif" font-size="14" lengthAdjust="spacing" textLength="108" x="1110" y="1010.541">PlayerRepository</text><rect fill="#FEFECE" filter="url(#fiigu62r0t20t)" height="49.2188" style="stroke:#A80036;stroke-width:1.5;" width="76" x="1239" y="35.3906"/><text fill="#000000" font-family="sans-serif" font-size="14" lengthAdjust="spacing" textLength="62" x="1246" y="56.9238">&lt;&lt;DTO&gt;&gt;</text><text fill="#000000" font-family="sans-serif" font-size="14" lengthAdjust="spacing" textLength="62" x="1246" y="74.5332">PlayerDto</text><rect fill="#FEFECE" filter="url(#fiigu62r0t20t)" height="49.2188" style="stroke:#A80036;stroke-width:1.5;" width="76" x="1239" y="971.3984"/><text fill="#000000" font-family="sans-serif" font-size="14" lengthAdjust="spacing" textLength="62" x="1246" y="992.9316">&lt;&lt;DTO&gt;&gt;</text><text fill="#000000" font-family="sans-serif" font-size="14" lengthAdjust="spacing" textLength="62" x="1246" y="1010.541">PlayerDto</text><rect fill="#FEFECE" filter="url(#fiigu62r0t20t)" height="49.2188" style="stroke:#A80036;stroke-width:1.5;" width="151" x="1329" y="35.3906"/><text fill="#000000" font-family="sans-serif" font-size="14" lengthAdjust="spacing" textLength="131" x="1339" y="56.9238">&lt;&lt;Domain Service&gt;&gt;</text><text fill="#000000" font-family="sans-serif" font-size="14" lengthAdjust="spacing" textLength="137" x="1336" y="74.5332">DirectRequestService</text><rect fill="#FEFECE" filter="url(#fiigu62r0t20t)" height="49.2188" style="stroke:#A80036;stroke-width:1.5;" width="151" x="1329" y="971.3984"/><text fill="#000000" font-family="sans-serif" font-size="14" lengthAdjust="spacing" textLength="131" x="1339" y="992.9316">&lt;&lt;Domain Service&gt;&gt;</text><text fill="#000000" font-family="sans-serif" font-size="14" lengthAdjust="spacing" textLength="137" x="1336" y="1010.541">DirectRequestService</text><rect fill="#FEFECE" filter="url(#fiigu62r0t20t)" height="49.2188" style="stroke:#A80036;stroke-width:1.5;" width="104" x="1521.5" y="35.3906"/><text fill="#000000" font-family="sans-serif" font-size="14" lengthAdjust="spacing" textLength="80" x="1533.5" y="56.9238">&lt;&lt;Domain&gt;&gt;</text><text fill="#000000" font-family="sans-serif" font-size="14" lengthAdjust="spacing" textLength="90" x="1528.5" y="74.5332">DirectRequest</text><rect fill="#FEFECE" filter="url(#fiigu62r0t20t)" height="49.2188" style="stroke:#A80036;stroke-width:1.5;" width="104" x="1521.5" y="971.3984"/><text fill="#000000" font-family="sans-serif" font-size="14" lengthAdjust="spacing" textLength="80" x="1533.5" y="992.9316">&lt;&lt;Domain&gt;&gt;</text><text fill="#000000" font-family="sans-serif" font-size="14" lengthAdjust="spacing" textLength="90" x="1528.5" y="1010.541">DirectRequest</text><rect fill="#FEFECE" filter="url(#fiigu62r0t20t)" height="49.2188" style="stroke:#A80036;stroke-width:1.5;" width="172" x="1639.5" y="35.3906"/><text fill="#000000" font-family="sans-serif" font-size="14" lengthAdjust="spacing" textLength="106" x="1672.5" y="56.9238">&lt;&lt;Persistence&gt;&gt;</text><text fill="#000000" font-family="sans-serif" font-size="14" lengthAdjust="spacing" textLength="158" x="1646.5" y="74.5332">DirectRequestRepository</text><rect fill="#FEFECE" filter="url(#fiigu62r0t20t)" height="49.2188" style="stroke:#A80036;stroke-width:1.5;" width="172" x="1639.5" y="971.3984"/><text fill="#000000" font-family="sans-serif" font-size="14" lengthAdjust="spacing" textLength="106" x="1672.5" y="992.9316">&lt;&lt;Persistence&gt;&gt;</text><text fill="#000000" font-family="sans-serif" font-size="14" lengthAdjust="spacing" textLength="158" x="1646.5" y="1010.541">DirectRequestRepository</text><rect fill="#FEFECE" filter="url(#fiigu62r0t20t)" height="49.2188" style="stroke:#A80036;stroke-width:1.5;" width="112" x="1825.5" y="35.3906"/><text fill="#000000" font-family="sans-serif" font-size="14" lengthAdjust="spacing" textLength="98" x="1832.5" y="56.9238">&lt;&lt;DbContext&gt;&gt;</text><text fill="#000000" font-family="sans-serif" font-size="14" lengthAdjust="spacing" textLength="72" x="1845.5" y="74.5332">UnitOfWork</text><rect fill="#FEFECE" filter="url(#fiigu62r0t20t)" height="49.2188" style="stroke:#A80036;stroke-width:1.5;" width="112" x="1825.5" y="971.3984"/><text fill="#000000" font-family="sans-serif" font-size="14" lengthAdjust="spacing" textLength="98" x="1832.5" y="992.9316">&lt;&lt;DbContext&gt;&gt;</text><text fill="#000000" font-family="sans-serif" font-size="14" lengthAdjust="spacing" textLength="72" x="1845.5" y="1010.541">UnitOfWork</text><rect fill="#FFFFFF" filter="url(#fiigu62r0t20t)" height="854.7891" style="stroke:#A80036;stroke-width:1.0;" width="10" x="23" y="99.6094"/><rect fill="#FFFFFF" filter="url(#fiigu62r0t20t)" height="832.4375" style="stroke:#A80036;stroke-width:1.0;" width="10" x="179" y="121.9609"/><rect fill="#FFFFFF" filter="url(#fiigu62r0t20t)" height="30.3516" style="stroke:#A80036;stroke-width:1.0;" width="10" x="325.5" y="152.3125"/><rect fill="#FFFFFF" filter="url(#fiigu62r0t20t)" height="214.4609" style="stroke:#A80036;stroke-width:1.0;" width="10" x="473.5" y="182.6641"/><rect fill="#FFFFFF" filter="url(#fiigu62r0t20t)" height="435.8672" style="stroke:#A80036;stroke-width:1.0;" width="10" x="637" y="488.1797"/><rect fill="#FFFFFF" filter="url(#fiigu62r0t20t)" height="153.7578" style="stroke:#A80036;stroke-width:1.0;" width="10" x="895" y="213.0156"/><rect fill="#FFFFFF" filter="url(#fiigu62r0t20t)" height="444.8672" style="stroke:#A80036;stroke-width:1.0;" width="10" x="895" y="518.5313"/><rect fill="#FFFFFF" filter="url(#fiigu62r0t20t)" height="30.3516" style="stroke:#A80036;stroke-width:1.0;" width="10" x="1161" y="243.3672"/><rect fill="#FFFFFF" filter="url(#fiigu62r0t20t)" height="149.4063" style="stroke:#A80036;stroke-width:1.0;" width="10" x="1161" y="548.8828"/><rect fill="#FFFFFF" filter="url(#fiigu62r0t20t)" height="165.0547" style="stroke:#A80036;stroke-width:1.0;" width="10" x="1401.5" y="728.6406"/><rect fill="#FFFFFF" filter="url(#fiigu62r0t20t)" height="30" style="stroke:#A80036;stroke-width:1.0;" width="10" x="1722.5" y="789.3438"/><rect fill="#FFFFFF" filter="url(#fiigu62r0t20t)" height="30" style="stroke:#A80036;stroke-width:1.0;" width="10" x="1878.5" y="849.6953"/><polygon fill="#A80036" points="167,117.9609,177,121.9609,167,125.9609,171,121.9609" style="stroke:#A80036;stroke-width:1.0;"/><line style="stroke:#A80036;stroke-width:1.0;" x1="33" x2="173" y1="121.9609" y2="121.9609"/><text fill="#000000" font-family="sans-serif" font-size="13" lengthAdjust="spacing" textLength="122" x="40" y="117.1045">show a list of players</text><polygon fill="#A80036" points="313.5,148.3125,323.5,152.3125,313.5,156.3125,317.5,152.3125" style="stroke:#A80036;stroke-width:1.0;"/><line style="stroke:#A80036;stroke-width:1.0;" x1="189" x2="319.5" y1="152.3125" y2="152.3125"/><text fill="#000000" font-family="sans-serif" font-size="13" lengthAdjust="spacing" textLength="74" x="196" y="147.4561">GET Players</text><polygon fill="#A80036" points="461.5,178.6641,471.5,182.6641,461.5,186.6641,465.5,182.6641" style="stroke:#A80036;stroke-width:1.0;"/><line style="stroke:#A80036;stroke-width:1.0;" x1="330.5" x2="467.5" y1="182.6641" y2="182.6641"/><text fill="#000000" font-family="sans-serif" font-size="13" lengthAdjust="spacing" textLength="44" x="337.5" y="177.8076">GetAll()</text><polygon fill="#A80036" points="883,209.0156,893,213.0156,883,217.0156,887,213.0156" style="stroke:#A80036;stroke-width:1.0;"/><line style="stroke:#A80036;stroke-width:1.0;" x1="483.5" x2="889" y1="213.0156" y2="213.0156"/><text fill="#000000" font-family="sans-serif" font-size="13" lengthAdjust="spacing" textLength="81" x="490.5" y="208.1592">GetAllAsync()</text><polygon fill="#A80036" points="1149,239.3672,1159,243.3672,1149,247.3672,1153,243.3672" style="stroke:#A80036;stroke-width:1.0;"/><line style="stroke:#A80036;stroke-width:1.0;" x1="905" x2="1155" y1="243.3672" y2="243.3672"/><text fill="#000000" font-family="sans-serif" font-size="13" lengthAdjust="spacing" textLength="81" x="912" y="238.5107">GetAllAsync()</text><polygon fill="#A80036" points="916,269.7188,906,273.7188,916,277.7188,912,273.7188" style="stroke:#A80036;stroke-width:1.0;"/><line style="stroke:#A80036;stroke-width:1.0;stroke-dasharray:2.0,2.0;" x1="910" x2="1165" y1="273.7188" y2="273.7188"/><text fill="#000000" font-family="sans-serif" font-size="13" lengthAdjust="spacing" textLength="103" x="922" y="268.8623">returns all players</text><path d="M815.5,288.7188 L888.5,288.7188 L888.5,296.7188 L878.5,306.7188 L815.5,306.7188 L815.5,288.7188 " fill="#EEEEEE" style="stroke:#000000;stroke-width:1.0;"/><rect fill="none" height="48.7031" style="stroke:#000000;stroke-width:2.0;" width="513.5" x="815.5" y="288.7188"/><text fill="#000000" font-family="sans-serif" font-size="13" font-weight="bold" lengthAdjust="spacing" textLength="28" x="830.5" y="303.2139">loop</text><text fill="#000000" font-family="sans-serif" font-size="11" font-weight="bold" lengthAdjust="spacing" textLength="95" x="903.5" y="302.1377">[for every player]</text><polygon fill="#A80036" points="1267,325.4219,1277,329.4219,1267,333.4219,1271,329.4219" style="stroke:#A80036;stroke-width:1.0;"/><line style="stroke:#A80036;stroke-width:1.0;stroke-dasharray:2.0,2.0;" x1="905" x2="1273" y1="329.4219" y2="329.4219"/><text fill="#000000" font-family="sans-serif" font-size="13" lengthAdjust="spacing" textLength="36" x="912" y="324.5654">create</text><polygon fill="#A80036" points="494.5,362.7734,484.5,366.7734,494.5,370.7734,490.5,366.7734" style="stroke:#A80036;stroke-width:1.0;"/><line style="stroke:#A80036;stroke-width:1.0;stroke-dasharray:2.0,2.0;" x1="488.5" x2="899" y1="366.7734" y2="366.7734"/><text fill="#000000" font-family="sans-serif" font-size="13" lengthAdjust="spacing" textLength="133" x="500.5" y="361.917">returns all players (dto)</text><polygon fill="#A80036" points="200,393.125,190,397.125,200,401.125,196,397.125" style="stroke:#A80036;stroke-width:1.0;"/><line style="stroke:#A80036;stroke-width:1.0;stroke-dasharray:2.0,2.0;" x1="194" x2="477.5" y1="397.125" y2="397.125"/><text fill="#000000" font-family="sans-serif" font-size="13" lengthAdjust="spacing" textLength="91" x="206" y="392.2686">response JSON</text><polygon fill="#A80036" points="44,423.4766,34,427.4766,44,431.4766,40,427.4766" style="stroke:#A80036;stroke-width:1.0;"/><line style="stroke:#A80036;stroke-width:1.0;stroke-dasharray:2.0,2.0;" x1="38" x2="178" y1="427.4766" y2="427.4766"/><text fill="#000000" font-family="sans-serif" font-size="13" lengthAdjust="spacing" textLength="122" x="50" y="422.6201">show a list of players</text><polygon fill="#A80036" points="167,453.8281,177,457.8281,167,461.8281,171,457.8281" style="stroke:#A80036;stroke-width:1.0;"/><line style="stroke:#A80036;stroke-width:1.0;" x1="33" x2="173" y1="457.8281" y2="457.8281"/><text fill="#000000" font-family="sans-serif" font-size="13" lengthAdjust="spacing" textLength="85" x="40" y="452.9717">select a player</text><polygon fill="#A80036" points="625,484.1797,635,488.1797,625,492.1797,629,488.1797" style="stroke:#A80036;stroke-width:1.0;"/><line style="stroke:#A80036;stroke-width:1.0;" x1="189" x2="631" y1="488.1797" y2="488.1797"/><text fill="#000000" font-family="sans-serif" font-size="13" lengthAdjust="spacing" textLength="121" x="196" y="483.3232">POST DirectRequest</text><polygon fill="#A80036" points="883,514.5313,893,518.5313,883,522.5313,887,518.5313" style="stroke:#A80036;stroke-width:1.0;"/><line style="stroke:#A80036;stroke-width:1.0;" x1="647" x2="889" y1="518.5313" y2="518.5313"/><text fill="#000000" font-family="sans-serif" font-size="13" lengthAdjust="spacing" textLength="224" x="654" y="513.6748">GetByEmailAsync(emailPlayerSender)</text><polygon fill="#A80036" points="1149,544.8828,1159,548.8828,1149,552.8828,1153,548.8828" style="stroke:#A80036;stroke-width:1.0;"/><line style="stroke:#A80036;stroke-width:1.0;" x1="905" x2="1155" y1="548.8828" y2="548.8828"/><text fill="#000000" font-family="sans-serif" font-size="13" lengthAdjust="spacing" textLength="224" x="912" y="544.0264">GetByEmailAsync(emailPlayerSender)</text><polygon fill="#A80036" points="916,575.2344,906,579.2344,916,583.2344,912,579.2344" style="stroke:#A80036;stroke-width:1.0;"/><line style="stroke:#A80036;stroke-width:1.0;stroke-dasharray:2.0,2.0;" x1="910" x2="1160" y1="579.2344" y2="579.2344"/><text fill="#000000" font-family="sans-serif" font-size="13" lengthAdjust="spacing" textLength="81" x="922" y="574.3779">returns Player</text><polygon fill="#A80036" points="658,589.2344,648,593.2344,658,597.2344,654,593.2344" style="stroke:#A80036;stroke-width:1.0;"/><line style="stroke:#A80036;stroke-width:1.0;stroke-dasharray:2.0,2.0;" x1="652" x2="894" y1="593.2344" y2="593.2344"/><polygon fill="#A80036" points="883,619.5859,893,623.5859,883,627.5859,887,623.5859" style="stroke:#A80036;stroke-width:1.0;"/><line style="stroke:#A80036;stroke-width:1.0;" x1="647" x2="889" y1="623.5859" y2="623.5859"/><text fill="#000000" font-family="sans-serif" font-size="13" lengthAdjust="spacing" textLength="224" x="654" y="618.7295">GetByEmailAsync(emailPlayerSender)</text><polygon fill="#A80036" points="1149,649.9375,1159,653.9375,1149,657.9375,1153,653.9375" style="stroke:#A80036;stroke-width:1.0;"/><line style="stroke:#A80036;stroke-width:1.0;" x1="905" x2="1155" y1="653.9375" y2="653.9375"/><text fill="#000000" font-family="sans-serif" font-size="13" lengthAdjust="spacing" textLength="232" x="912" y="649.0811">GetByEmailAsync(emailPlayerReceiver)</text><polygon fill="#A80036" points="916,680.2891,906,684.2891,916,688.2891,912,684.2891" style="stroke:#A80036;stroke-width:1.0;"/><line style="stroke:#A80036;stroke-width:1.0;stroke-dasharray:2.0,2.0;" x1="910" x2="1160" y1="684.2891" y2="684.2891"/><text fill="#000000" font-family="sans-serif" font-size="13" lengthAdjust="spacing" textLength="81" x="922" y="679.4326">returns Player</text><polygon fill="#A80036" points="658,694.2891,648,698.2891,658,702.2891,654,698.2891" style="stroke:#A80036;stroke-width:1.0;"/><line style="stroke:#A80036;stroke-width:1.0;stroke-dasharray:2.0,2.0;" x1="652" x2="894" y1="698.2891" y2="698.2891"/><polygon fill="#A80036" points="1389.5,724.6406,1399.5,728.6406,1389.5,732.6406,1393.5,728.6406" style="stroke:#A80036;stroke-width:1.0;"/><line style="stroke:#A80036;stroke-width:1.0;" x1="647" x2="1395.5" y1="728.6406" y2="728.6406"/><text fill="#000000" font-family="sans-serif" font-size="13" lengthAdjust="spacing" textLength="208" x="654" y="723.7842">AddAsync(CreateDirectRequestDto)</text><polygon fill="#A80036" points="1563.5,754.9922,1573.5,758.9922,1563.5,762.9922,1567.5,758.9922" style="stroke:#A80036;stroke-width:1.0;"/><line style="stroke:#A80036;stroke-width:1.0;stroke-dasharray:2.0,2.0;" x1="1411.5" x2="1569.5" y1="758.9922" y2="758.9922"/><text fill="#000000" font-family="sans-serif" font-size="13" lengthAdjust="spacing" textLength="140" x="1418.5" y="754.1357">directRequest = create()</text><polygon fill="#A80036" points="1710.5,785.3438,1720.5,789.3438,1710.5,793.3438,1714.5,789.3438" style="stroke:#A80036;stroke-width:1.0;"/><line style="stroke:#A80036;stroke-width:1.0;" x1="1411.5" x2="1716.5" y1="789.3438" y2="789.3438"/><text fill="#000000" font-family="sans-serif" font-size="13" lengthAdjust="spacing" textLength="148" x="1418.5" y="784.4873">AddAsync(directRequest)</text><polygon fill="#A80036" points="1866.5,845.6953,1876.5,849.6953,1866.5,853.6953,1870.5,849.6953" style="stroke:#A80036;stroke-width:1.0;"/><line style="stroke:#A80036;stroke-width:1.0;" x1="1411.5" x2="1872.5" y1="849.6953" y2="849.6953"/><text fill="#000000" font-family="sans-serif" font-size="13" lengthAdjust="spacing" textLength="90" x="1418.5" y="844.8389">CommitAsync()</text><polygon fill="#A80036" points="658,889.6953,648,893.6953,658,897.6953,654,893.6953" style="stroke:#A80036;stroke-width:1.0;"/><line style="stroke:#A80036;stroke-width:1.0;stroke-dasharray:2.0,2.0;" x1="652" x2="1405.5" y1="893.6953" y2="893.6953"/><polygon fill="#A80036" points="200,920.0469,190,924.0469,200,928.0469,196,924.0469" style="stroke:#A80036;stroke-width:1.0;"/><line style="stroke:#A80036;stroke-width:1.0;stroke-dasharray:2.0,2.0;" x1="194" x2="641" y1="924.0469" y2="924.0469"/><text fill="#000000" font-family="sans-serif" font-size="13" lengthAdjust="spacing" textLength="91" x="206" y="919.1904">response JSON</text><polygon fill="#A80036" points="39,950.3984,29,954.3984,39,958.3984,35,954.3984" style="stroke:#A80036;stroke-width:1.0;"/><line style="stroke:#A80036;stroke-width:1.0;stroke-dasharray:2.0,2.0;" x1="33" x2="183" y1="954.3984" y2="954.3984"/><text fill="#000000" font-family="sans-serif" font-size="13" lengthAdjust="spacing" textLength="118" x="45" y="949.542">confirms the request</text><!--MD5=[2be558e5f76f06b5560fdd1367081211]
@startuml

actor "Player" as P

participant "<<C4 Container>>\nVisualization" as V
participant "<<REST API>>\nAPI WebApp Visual" as API
participant "<<API Controller>>\nPlayerController" as PC
participant "<<API Controller>>\nDirectRequestController" as DRC
participant "<<Domain Service>>\nPlayerService" as PS
participant "<<Persistence>>\nPlayerRepository" as PR
participant "<<DTO>>\nPlayerDto" as PDTO
participant "<<Domain Service>>\nDirectRequestService" as DRS
participant "<<Domain>>\nDirectRequest" as DR
participant "<<Persistence>>\nDirectRequestRepository" as DRR
participant "<<DbContext>>\nUnitOfWork" as UW

activate P

P -> V : show a list of players

activate V

V -> API: GET Players

activate API

API -> PC: GetAll()

deactivate API

activate PC 

PC -> PS : GetAllAsync()

activate PS

PS -> PR : GetAllAsync()

activate PR

PR - -> PS : returns all players

deactivate PR

loop for every player

PS - -> PDTO : create

end

PS - -> PC : returns all players (dto)

deactivate PS

PC - -> V : response JSON 

deactivate PC 

V - -> P : show a list of players

P -> V : select a player

V -> DRC : POST DirectRequest

activate DRC 

DRC -> PS : GetByEmailAsync(emailPlayerSender)

activate PS

PS -> PR : GetByEmailAsync(emailPlayerSender)

activate PR 

PR - -> PS : returns Player

PS - -> DRC

DRC -> PS : GetByEmailAsync(emailPlayerSender)

PS -> PR : GetByEmailAsync(emailPlayerReceiver)

PR - -> PS : returns Player

PS - -> DRC

deactivate PR

DRC -> DRS : AddAsync(CreateDirectRequestDto)

activate DRS 

DRS - -> DR : directRequest = create()

DRS -> DRR : AddAsync(directRequest)

activate DRR
deactivate DRR

DRS -> UW : CommitAsync()

activate UW 
deactivate UW
 
DRS - -> DRC 

deactivate DRS

DRC - -> V : response JSON

deactivate DRC 

V - -> P : confirms the request

deactivate V 

deactivate P

@enduml

PlantUML version 1.2021.11(Sat Oct 02 14:26:11 BST 2021)
(GPL source distribution)
Java Runtime: OpenJDK Runtime Environment
JVM: Dynamic Code Evolution 64-Bit Server VM
Default Encoding: Cp1252
Language: pt
Country: PT
--></g></svg>