<?xml version="1.0" encoding="UTF-8" standalone="no"?><svg xmlns="http://www.w3.org/2000/svg" xmlns:xlink="http://www.w3.org/1999/xlink" contentScriptType="application/ecmascript" contentStyleType="text/css" height="346px" preserveAspectRatio="none" style="width:679px;height:346px;background:#FFFFFF;" version="1.1" viewBox="0 0 679 346" width="679px" zoomAndPan="magnify"><defs><filter height="300%" id="f1v68ljsajkjcw" width="300%" x="-1" y="-1"><feGaussianBlur result="blurOut" stdDeviation="2.0"/><feColorMatrix in="blurOut" result="blurOut2" type="matrix" values="0 0 0 0 0 0 0 0 0 0 0 0 0 0 0 0 0 0 .4 0"/><feOffset dx="4.0" dy="4.0" in="blurOut2" result="blurOut3"/><feBlend in="SourceGraphic" in2="blurOut3" mode="normal"/></filter></defs><g><rect fill="#FFFFFF" filter="url(#f1v68ljsajkjcw)" height="143.7578" style="stroke:#A80036;stroke-width:1.0;" width="10" x="60" y="99.6094"/><rect fill="#FFFFFF" filter="url(#f1v68ljsajkjcw)" height="121.4063" style="stroke:#A80036;stroke-width:1.0;" width="10" x="233" y="121.9609"/><rect fill="#FFFFFF" filter="url(#f1v68ljsajkjcw)" height="30.3516" style="stroke:#A80036;stroke-width:1.0;" width="10" x="379.5" y="152.3125"/><rect fill="#FFFFFF" filter="url(#f1v68ljsajkjcw)" height="143.7578" style="stroke:#A80036;stroke-width:1.0;" width="10" x="597.5" y="99.6094"/><line style="stroke:#A80036;stroke-width:1.0;stroke-dasharray:5.0,5.0;" x1="65" x2="65" y1="89.6094" y2="261.3672"/><line style="stroke:#A80036;stroke-width:1.0;stroke-dasharray:5.0,5.0;" x1="238" x2="238" y1="89.6094" y2="261.3672"/><line style="stroke:#A80036;stroke-width:1.0;stroke-dasharray:5.0,5.0;" x1="384" x2="384" y1="89.6094" y2="261.3672"/><line style="stroke:#A80036;stroke-width:1.0;stroke-dasharray:5.0,5.0;" x1="602.5" x2="602.5" y1="89.6094" y2="261.3672"/><text fill="#000000" font-family="sans-serif" font-size="14" lengthAdjust="spacing" textLength="114" x="5" y="86.5332">Unregistered User</text><ellipse cx="65" cy="15" fill="#FEFECE" filter="url(#f1v68ljsajkjcw)" rx="8" ry="8" style="stroke:#A80036;stroke-width:2.0;"/><path d="M65,23 L65,50 M52,31 L78,31 M65,50 L52,65 M65,50 L78,65 " fill="none" filter="url(#f1v68ljsajkjcw)" style="stroke:#A80036;stroke-width:2.0;"/><text fill="#000000" font-family="sans-serif" font-size="14" lengthAdjust="spacing" textLength="114" x="5" y="274.9004">Unregistered User</text><ellipse cx="65" cy="287.9766" fill="#FEFECE" filter="url(#f1v68ljsajkjcw)" rx="8" ry="8" style="stroke:#A80036;stroke-width:2.0;"/><path d="M65,295.9766 L65,322.9766 M52,303.9766 L78,303.9766 M65,322.9766 L52,337.9766 M65,322.9766 L78,337.9766 " fill="none" filter="url(#f1v68ljsajkjcw)" style="stroke:#A80036;stroke-width:2.0;"/><rect fill="#FEFECE" filter="url(#f1v68ljsajkjcw)" height="49.2188" style="stroke:#A80036;stroke-width:1.5;" width="130" x="171" y="35.3906"/><text fill="#000000" font-family="sans-serif" font-size="14" lengthAdjust="spacing" textLength="116" x="178" y="56.9238">&lt;&lt;C4 Container&gt;&gt;</text><text fill="#000000" font-family="sans-serif" font-size="14" lengthAdjust="spacing" textLength="78" x="197" y="74.5332">Visualization</text><rect fill="#FEFECE" filter="url(#f1v68ljsajkjcw)" height="49.2188" style="stroke:#A80036;stroke-width:1.5;" width="130" x="171" y="260.3672"/><text fill="#000000" font-family="sans-serif" font-size="14" lengthAdjust="spacing" textLength="116" x="178" y="281.9004">&lt;&lt;C4 Container&gt;&gt;</text><text fill="#000000" font-family="sans-serif" font-size="14" lengthAdjust="spacing" textLength="78" x="197" y="299.5098">Visualization</text><rect fill="#FEFECE" filter="url(#f1v68ljsajkjcw)" height="49.2188" style="stroke:#A80036;stroke-width:1.5;" width="135" x="315" y="35.3906"/><text fill="#000000" font-family="sans-serif" font-size="14" lengthAdjust="spacing" textLength="94" x="335.5" y="56.9238">&lt;&lt;REST API&gt;&gt;</text><text fill="#000000" font-family="sans-serif" font-size="14" lengthAdjust="spacing" textLength="121" x="322" y="74.5332">API WebApp Visual</text><rect fill="#FEFECE" filter="url(#f1v68ljsajkjcw)" height="49.2188" style="stroke:#A80036;stroke-width:1.5;" width="135" x="315" y="260.3672"/><text fill="#000000" font-family="sans-serif" font-size="14" lengthAdjust="spacing" textLength="94" x="335.5" y="281.9004">&lt;&lt;REST API&gt;&gt;</text><text fill="#000000" font-family="sans-serif" font-size="14" lengthAdjust="spacing" textLength="121" x="322" y="299.5098">API WebApp Visual</text><rect fill="#FEFECE" filter="url(#f1v68ljsajkjcw)" height="49.2188" style="stroke:#A80036;stroke-width:1.5;" width="130" x="535.5" y="35.3906"/><text fill="#000000" font-family="sans-serif" font-size="14" lengthAdjust="spacing" textLength="116" x="542.5" y="56.9238">&lt;&lt;C4 Container&gt;&gt;</text><text fill="#000000" font-family="sans-serif" font-size="14" lengthAdjust="spacing" textLength="88" x="556.5" y="74.5332">SocialNetwork</text><rect fill="#FEFECE" filter="url(#f1v68ljsajkjcw)" height="49.2188" style="stroke:#A80036;stroke-width:1.5;" width="130" x="535.5" y="260.3672"/><text fill="#000000" font-family="sans-serif" font-size="14" lengthAdjust="spacing" textLength="116" x="542.5" y="281.9004">&lt;&lt;C4 Container&gt;&gt;</text><text fill="#000000" font-family="sans-serif" font-size="14" lengthAdjust="spacing" textLength="88" x="556.5" y="299.5098">SocialNetwork</text><rect fill="#FFFFFF" filter="url(#f1v68ljsajkjcw)" height="143.7578" style="stroke:#A80036;stroke-width:1.0;" width="10" x="60" y="99.6094"/><rect fill="#FFFFFF" filter="url(#f1v68ljsajkjcw)" height="121.4063" style="stroke:#A80036;stroke-width:1.0;" width="10" x="233" y="121.9609"/><rect fill="#FFFFFF" filter="url(#f1v68ljsajkjcw)" height="30.3516" style="stroke:#A80036;stroke-width:1.0;" width="10" x="379.5" y="152.3125"/><rect fill="#FFFFFF" filter="url(#f1v68ljsajkjcw)" height="143.7578" style="stroke:#A80036;stroke-width:1.0;" width="10" x="597.5" y="99.6094"/><polygon fill="#A80036" points="221,117.9609,231,121.9609,221,125.9609,225,121.9609" style="stroke:#A80036;stroke-width:1.0;"/><line style="stroke:#A80036;stroke-width:1.0;" x1="70" x2="227" y1="121.9609" y2="121.9609"/><text fill="#000000" font-family="sans-serif" font-size="13" lengthAdjust="spacing" textLength="111" x="77" y="117.1045">register as a player</text><polygon fill="#A80036" points="367.5,148.3125,377.5,152.3125,367.5,156.3125,371.5,152.3125" style="stroke:#A80036;stroke-width:1.0;"/><line style="stroke:#A80036;stroke-width:1.0;" x1="243" x2="373.5" y1="152.3125" y2="152.3125"/><text fill="#000000" font-family="sans-serif" font-size="13" lengthAdjust="spacing" textLength="76" x="250" y="147.4561">POST Player</text><polygon fill="#A80036" points="585.5,178.6641,595.5,182.6641,585.5,186.6641,589.5,182.6641" style="stroke:#A80036;stroke-width:1.0;"/><line style="stroke:#A80036;stroke-width:1.0;" x1="384.5" x2="591.5" y1="182.6641" y2="182.6641"/><text fill="#000000" font-family="sans-serif" font-size="13" lengthAdjust="spacing" textLength="184" x="391.5" y="177.8076">Create(CreateUserAsPlayerDto)</text><polygon fill="#A80036" points="254,209.0156,244,213.0156,254,217.0156,250,213.0156" style="stroke:#A80036;stroke-width:1.0;"/><line style="stroke:#A80036;stroke-width:1.0;stroke-dasharray:2.0,2.0;" x1="248" x2="596.5" y1="213.0156" y2="213.0156"/><text fill="#000000" font-family="sans-serif" font-size="13" lengthAdjust="spacing" textLength="91" x="260" y="208.1592">response JSON</text><polygon fill="#A80036" points="76,239.3672,66,243.3672,76,247.3672,72,243.3672" style="stroke:#A80036;stroke-width:1.0;"/><line style="stroke:#A80036;stroke-width:1.0;stroke-dasharray:2.0,2.0;" x1="70" x2="237" y1="243.3672" y2="243.3672"/><text fill="#000000" font-family="sans-serif" font-size="13" lengthAdjust="spacing" textLength="139" x="82" y="238.5107">confirms the registration</text><!--MD5=[ac334b1e594763a8a990786ef9353c28]
@startuml

actor "Unregistered User" as UNU
participant "<<C4 Container>>\nVisualization" as V
participant "<<REST API>>\nAPI WebApp Visual" as API
participant "<<C4 Container>>\nSocialNetwork" as SN

activate SN

activate UNU

UNU -> V : register as a player 

activate V

V -> API: POST Player

activate API
API -> SN: Create(CreateUserAsPlayerDto)
deactivate API

SN - -> V : response JSON

V - -> UNU : confirms the registration

deactivate V 

deactivate UNU

deactivate SN

@enduml

PlantUML version 1.2021.11(Sat Oct 02 14:26:11 BST 2021)
(GPL source distribution)
Java Runtime: OpenJDK Runtime Environment
JVM: Dynamic Code Evolution 64-Bit Server VM
Default Encoding: Cp1252
Language: pt
Country: PT
--></g></svg>