<?xml version="1.0" encoding="UTF-8" standalone="no"?><svg xmlns="http://www.w3.org/2000/svg" xmlns:xlink="http://www.w3.org/1999/xlink" contentScriptType="application/ecmascript" contentStyleType="text/css" height="286px" preserveAspectRatio="none" style="width:468px;height:286px;background:#FFFFFF;" version="1.1" viewBox="0 0 468 286" width="468px" zoomAndPan="magnify"><defs><filter height="300%" id="f16i24xbilq6vo" width="300%" x="-1" y="-1"><feGaussianBlur result="blurOut" stdDeviation="2.0"/><feColorMatrix in="blurOut" result="blurOut2" type="matrix" values="0 0 0 0 0 0 0 0 0 0 0 0 0 0 0 0 0 0 .4 0"/><feOffset dx="4.0" dy="4.0" in="blurOut2" result="blurOut3"/><feBlend in="SourceGraphic" in2="blurOut3" mode="normal"/></filter></defs><g><rect fill="#FFFFFF" filter="url(#f16i24xbilq6vo)" height="92.0547" style="stroke:#A80036;stroke-width:1.0;" width="10" x="60" y="99.6094"/><rect fill="#FFFFFF" filter="url(#f16i24xbilq6vo)" height="30.3516" style="stroke:#A80036;stroke-width:1.0;" width="10" x="173.5" y="121.9609"/><rect fill="#FFFFFF" filter="url(#f16i24xbilq6vo)" height="30.3516" style="stroke:#A80036;stroke-width:1.0;" width="10" x="386.5" y="152.3125"/><line style="stroke:#A80036;stroke-width:1.0;stroke-dasharray:5.0,5.0;" x1="65" x2="65" y1="89.6094" y2="200.6641"/><line style="stroke:#A80036;stroke-width:1.0;stroke-dasharray:5.0,5.0;" x1="178" x2="178" y1="89.6094" y2="200.6641"/><line style="stroke:#A80036;stroke-width:1.0;stroke-dasharray:5.0,5.0;" x1="391.5" x2="391.5" y1="89.6094" y2="200.6641"/><text fill="#000000" font-family="sans-serif" font-size="14" lengthAdjust="spacing" textLength="114" x="5" y="86.5332">Unregistered User</text><ellipse cx="65" cy="15" fill="#FEFECE" filter="url(#f16i24xbilq6vo)" rx="8" ry="8" style="stroke:#A80036;stroke-width:2.0;"/><path d="M65,23 L65,50 M52,31 L78,31 M65,50 L52,65 M65,50 L78,65 " fill="none" filter="url(#f16i24xbilq6vo)" style="stroke:#A80036;stroke-width:2.0;"/><text fill="#000000" font-family="sans-serif" font-size="14" lengthAdjust="spacing" textLength="114" x="5" y="214.1973">Unregistered User</text><ellipse cx="65" cy="227.2734" fill="#FEFECE" filter="url(#f16i24xbilq6vo)" rx="8" ry="8" style="stroke:#A80036;stroke-width:2.0;"/><path d="M65,235.2734 L65,262.2734 M52,243.2734 L78,243.2734 M65,262.2734 L52,277.2734 M65,262.2734 L78,277.2734 " fill="none" filter="url(#f16i24xbilq6vo)" style="stroke:#A80036;stroke-width:2.0;"/><rect fill="#FEFECE" filter="url(#f16i24xbilq6vo)" height="49.2188" style="stroke:#A80036;stroke-width:1.5;" width="83" x="135" y="35.3906"/><text fill="#000000" font-family="sans-serif" font-size="14" lengthAdjust="spacing" textLength="69" x="142" y="56.9238">&lt;&lt;REST&gt;&gt;</text><text fill="#000000" font-family="sans-serif" font-size="14" lengthAdjust="spacing" textLength="21" x="166" y="74.5332">API</text><rect fill="#FEFECE" filter="url(#f16i24xbilq6vo)" height="49.2188" style="stroke:#A80036;stroke-width:1.5;" width="83" x="135" y="199.6641"/><text fill="#000000" font-family="sans-serif" font-size="14" lengthAdjust="spacing" textLength="69" x="142" y="221.1973">&lt;&lt;REST&gt;&gt;</text><text fill="#000000" font-family="sans-serif" font-size="14" lengthAdjust="spacing" textLength="21" x="166" y="238.8066">API</text><rect fill="#FEFECE" filter="url(#f16i24xbilq6vo)" height="49.2188" style="stroke:#A80036;stroke-width:1.5;" width="130" x="324.5" y="35.3906"/><text fill="#000000" font-family="sans-serif" font-size="14" lengthAdjust="spacing" textLength="116" x="331.5" y="56.9238">&lt;&lt;C4 Container&gt;&gt;</text><text fill="#000000" font-family="sans-serif" font-size="14" lengthAdjust="spacing" textLength="88" x="345.5" y="74.5332">SocialNetwork</text><rect fill="#FEFECE" filter="url(#f16i24xbilq6vo)" height="49.2188" style="stroke:#A80036;stroke-width:1.5;" width="130" x="324.5" y="199.6641"/><text fill="#000000" font-family="sans-serif" font-size="14" lengthAdjust="spacing" textLength="116" x="331.5" y="221.1973">&lt;&lt;C4 Container&gt;&gt;</text><text fill="#000000" font-family="sans-serif" font-size="14" lengthAdjust="spacing" textLength="88" x="345.5" y="238.8066">SocialNetwork</text><rect fill="#FFFFFF" filter="url(#f16i24xbilq6vo)" height="92.0547" style="stroke:#A80036;stroke-width:1.0;" width="10" x="60" y="99.6094"/><rect fill="#FFFFFF" filter="url(#f16i24xbilq6vo)" height="30.3516" style="stroke:#A80036;stroke-width:1.0;" width="10" x="173.5" y="121.9609"/><rect fill="#FFFFFF" filter="url(#f16i24xbilq6vo)" height="30.3516" style="stroke:#A80036;stroke-width:1.0;" width="10" x="386.5" y="152.3125"/><polygon fill="#A80036" points="161.5,117.9609,171.5,121.9609,161.5,125.9609,165.5,121.9609" style="stroke:#A80036;stroke-width:1.0;"/><line style="stroke:#A80036;stroke-width:1.0;" x1="70" x2="167.5" y1="121.9609" y2="121.9609"/><text fill="#000000" font-family="sans-serif" font-size="13" lengthAdjust="spacing" textLength="76" x="77" y="117.1045">POST Player</text><polygon fill="#A80036" points="374.5,148.3125,384.5,152.3125,374.5,156.3125,378.5,152.3125" style="stroke:#A80036;stroke-width:1.0;"/><line style="stroke:#A80036;stroke-width:1.0;" x1="178.5" x2="380.5" y1="152.3125" y2="152.3125"/><text fill="#000000" font-family="sans-serif" font-size="13" lengthAdjust="spacing" textLength="184" x="185.5" y="147.4561">Create(CreateUserAsPlayerDto)</text><polygon fill="#A80036" points="81,178.6641,71,182.6641,81,186.6641,77,182.6641" style="stroke:#A80036;stroke-width:1.0;"/><line style="stroke:#A80036;stroke-width:1.0;stroke-dasharray:2.0,2.0;" x1="75" x2="390.5" y1="182.6641" y2="182.6641"/><text fill="#000000" font-family="sans-serif" font-size="13" lengthAdjust="spacing" textLength="91" x="87" y="177.8076">response JSON</text><!--MD5=[f07ab78adddd9360dabe3a946e2256ba]
@startuml

actor "Unregistered User" as UNU
participant "<<REST>>\nAPI" as API
participant "<<C4 Container>>\nSocialNetwork" as SN

activate UNU
UNU -> API: POST Player

activate API
API -> SN: Create(CreateUserAsPlayerDto)
deactivate API

activate SN
SN - -> UNU : response JSON
deactivate SN

@enduml

PlantUML version 1.2021.11(Sat Oct 02 14:26:11 BST 2021)
(GPL source distribution)
Java Runtime: OpenJDK Runtime Environment
JVM: Dynamic Code Evolution 64-Bit Server VM
Default Encoding: Cp1252
Language: pt
Country: PT
--></g></svg>