<?xml version="1.0" encoding="UTF-8" standalone="no"?><svg xmlns="http://www.w3.org/2000/svg" xmlns:xlink="http://www.w3.org/1999/xlink" contentScriptType="application/ecmascript" contentStyleType="text/css" height="316px" preserveAspectRatio="none" style="width:647px;height:316px;background:#FFFFFF;" version="1.1" viewBox="0 0 647 316" width="647px" zoomAndPan="magnify"><defs><filter height="300%" id="fzuor916dk7cf" width="300%" x="-1" y="-1"><feGaussianBlur result="blurOut" stdDeviation="2.0"/><feColorMatrix in="blurOut" result="blurOut2" type="matrix" values="0 0 0 0 0 0 0 0 0 0 0 0 0 0 0 0 0 0 .4 0"/><feOffset dx="4.0" dy="4.0" in="blurOut2" result="blurOut3"/><feBlend in="SourceGraphic" in2="blurOut3" mode="normal"/></filter></defs><g><rect fill="#FFFFFF" filter="url(#fzuor916dk7cf)" height="122.4063" style="stroke:#A80036;stroke-width:1.0;" width="10" x="54" y="99.6094"/><rect fill="#FFFFFF" filter="url(#fzuor916dk7cf)" height="91.0547" style="stroke:#A80036;stroke-width:1.0;" width="10" x="210" y="121.9609"/><rect fill="#FFFFFF" filter="url(#fzuor916dk7cf)" height="30.3516" style="stroke:#A80036;stroke-width:1.0;" width="10" x="330.5" y="152.3125"/><rect fill="#FFFFFF" filter="url(#fzuor916dk7cf)" height="122.4063" style="stroke:#A80036;stroke-width:1.0;" width="10" x="565.5" y="99.6094"/><line style="stroke:#A80036;stroke-width:1.0;stroke-dasharray:5.0,5.0;" x1="59" x2="59" y1="89.6094" y2="231.0156"/><line style="stroke:#A80036;stroke-width:1.0;stroke-dasharray:5.0,5.0;" x1="215" x2="215" y1="89.6094" y2="231.0156"/><line style="stroke:#A80036;stroke-width:1.0;stroke-dasharray:5.0,5.0;" x1="335" x2="335" y1="89.6094" y2="231.0156"/><line style="stroke:#A80036;stroke-width:1.0;stroke-dasharray:5.0,5.0;" x1="570.5" x2="570.5" y1="89.6094" y2="231.0156"/><text fill="#000000" font-family="sans-serif" font-size="14" lengthAdjust="spacing" textLength="102" x="5" y="86.5332">Registered User</text><ellipse cx="59" cy="15" fill="#FEFECE" filter="url(#fzuor916dk7cf)" rx="8" ry="8" style="stroke:#A80036;stroke-width:2.0;"/><path d="M59,23 L59,50 M46,31 L72,31 M59,50 L46,65 M59,50 L72,65 " fill="none" filter="url(#fzuor916dk7cf)" style="stroke:#A80036;stroke-width:2.0;"/><text fill="#000000" font-family="sans-serif" font-size="14" lengthAdjust="spacing" textLength="102" x="5" y="244.5488">Registered User</text><ellipse cx="59" cy="257.625" fill="#FEFECE" filter="url(#fzuor916dk7cf)" rx="8" ry="8" style="stroke:#A80036;stroke-width:2.0;"/><path d="M59,265.625 L59,292.625 M46,273.625 L72,273.625 M59,292.625 L46,307.625 M59,292.625 L72,307.625 " fill="none" filter="url(#fzuor916dk7cf)" style="stroke:#A80036;stroke-width:2.0;"/><rect fill="#FEFECE" filter="url(#fzuor916dk7cf)" height="49.2188" style="stroke:#A80036;stroke-width:1.5;" width="130" x="148" y="35.3906"/><text fill="#000000" font-family="sans-serif" font-size="14" lengthAdjust="spacing" textLength="116" x="155" y="56.9238">&lt;&lt;C4 Container&gt;&gt;</text><text fill="#000000" font-family="sans-serif" font-size="14" lengthAdjust="spacing" textLength="78" x="174" y="74.5332">Visualization</text><rect fill="#FEFECE" filter="url(#fzuor916dk7cf)" height="49.2188" style="stroke:#A80036;stroke-width:1.5;" width="130" x="148" y="230.0156"/><text fill="#000000" font-family="sans-serif" font-size="14" lengthAdjust="spacing" textLength="116" x="155" y="251.5488">&lt;&lt;C4 Container&gt;&gt;</text><text fill="#000000" font-family="sans-serif" font-size="14" lengthAdjust="spacing" textLength="78" x="174" y="269.1582">Visualization</text><rect fill="#FEFECE" filter="url(#fzuor916dk7cf)" height="49.2188" style="stroke:#A80036;stroke-width:1.5;" width="83" x="292" y="35.3906"/><text fill="#000000" font-family="sans-serif" font-size="14" lengthAdjust="spacing" textLength="69" x="299" y="56.9238">&lt;&lt;REST&gt;&gt;</text><text fill="#000000" font-family="sans-serif" font-size="14" lengthAdjust="spacing" textLength="21" x="323" y="74.5332">API</text><rect fill="#FEFECE" filter="url(#fzuor916dk7cf)" height="49.2188" style="stroke:#A80036;stroke-width:1.5;" width="83" x="292" y="230.0156"/><text fill="#000000" font-family="sans-serif" font-size="14" lengthAdjust="spacing" textLength="69" x="299" y="251.5488">&lt;&lt;REST&gt;&gt;</text><text fill="#000000" font-family="sans-serif" font-size="14" lengthAdjust="spacing" textLength="21" x="323" y="269.1582">API</text><rect fill="#FEFECE" filter="url(#fzuor916dk7cf)" height="49.2188" style="stroke:#A80036;stroke-width:1.5;" width="130" x="503.5" y="35.3906"/><text fill="#000000" font-family="sans-serif" font-size="14" lengthAdjust="spacing" textLength="116" x="510.5" y="56.9238">&lt;&lt;C4 Container&gt;&gt;</text><text fill="#000000" font-family="sans-serif" font-size="14" lengthAdjust="spacing" textLength="88" x="524.5" y="74.5332">SocialNetwork</text><rect fill="#FEFECE" filter="url(#fzuor916dk7cf)" height="49.2188" style="stroke:#A80036;stroke-width:1.5;" width="130" x="503.5" y="230.0156"/><text fill="#000000" font-family="sans-serif" font-size="14" lengthAdjust="spacing" textLength="116" x="510.5" y="251.5488">&lt;&lt;C4 Container&gt;&gt;</text><text fill="#000000" font-family="sans-serif" font-size="14" lengthAdjust="spacing" textLength="88" x="524.5" y="269.1582">SocialNetwork</text><rect fill="#FFFFFF" filter="url(#fzuor916dk7cf)" height="122.4063" style="stroke:#A80036;stroke-width:1.0;" width="10" x="54" y="99.6094"/><rect fill="#FFFFFF" filter="url(#fzuor916dk7cf)" height="91.0547" style="stroke:#A80036;stroke-width:1.0;" width="10" x="210" y="121.9609"/><rect fill="#FFFFFF" filter="url(#fzuor916dk7cf)" height="30.3516" style="stroke:#A80036;stroke-width:1.0;" width="10" x="330.5" y="152.3125"/><rect fill="#FFFFFF" filter="url(#fzuor916dk7cf)" height="122.4063" style="stroke:#A80036;stroke-width:1.0;" width="10" x="565.5" y="99.6094"/><polygon fill="#A80036" points="198,117.9609,208,121.9609,198,125.9609,202,121.9609" style="stroke:#A80036;stroke-width:1.0;"/><line style="stroke:#A80036;stroke-width:1.0;" x1="64" x2="204" y1="121.9609" y2="121.9609"/><text fill="#000000" font-family="sans-serif" font-size="13" lengthAdjust="spacing" textLength="127" x="71" y="117.1045">submits profile update</text><polygon fill="#A80036" points="318.5,148.3125,328.5,152.3125,318.5,156.3125,322.5,152.3125" style="stroke:#A80036;stroke-width:1.0;"/><line style="stroke:#A80036;stroke-width:1.0;" x1="220" x2="324.5" y1="152.3125" y2="152.3125"/><text fill="#000000" font-family="sans-serif" font-size="13" lengthAdjust="spacing" textLength="66" x="227" y="147.4561">PUT Player</text><polygon fill="#A80036" points="553.5,178.6641,563.5,182.6641,553.5,186.6641,557.5,182.6641" style="stroke:#A80036;stroke-width:1.0;"/><line style="stroke:#A80036;stroke-width:1.0;" x1="335.5" x2="559.5" y1="182.6641" y2="182.6641"/><text fill="#000000" font-family="sans-serif" font-size="13" lengthAdjust="spacing" textLength="201" x="342.5" y="177.8076">UpdateProfile(id, UpdatePlayerDto)</text><polygon fill="#A80036" points="226,209.0156,216,213.0156,226,217.0156,222,213.0156" style="stroke:#A80036;stroke-width:1.0;"/><line style="stroke:#A80036;stroke-width:1.0;stroke-dasharray:2.0,2.0;" x1="220" x2="564.5" y1="213.0156" y2="213.0156"/><text fill="#000000" font-family="sans-serif" font-size="13" lengthAdjust="spacing" textLength="91" x="232" y="208.1592">response JSON</text><!--MD5=[4d2ee20f3fa6bc48e78b5d7aced6241d]
@startuml

actor "Registered User" as UNU
participant "<<C4 Container>>\nVisualization" as V
participant "<<REST>>\nAPI" as API
participant "<<C4 Container>>\nSocialNetwork" as SN

activate SN

activate UNU
UNU->V:submits profile update
activate V

V -> API: PUT Player

activate API
API -> SN: UpdateProfile(id, UpdatePlayerDto)
deactivate API


SN - -> V : response JSON
deactivate V


@enduml

PlantUML version 1.2021.7(Sun May 23 13:40:07 BST 2021)
(GPL source distribution)
Java Runtime: Java(TM) SE Runtime Environment
JVM: Java HotSpot(TM) 64-Bit Server VM
Default Encoding: Cp1252
Language: en
Country: US
--></g></svg>