<?xml version="1.0" encoding="UTF-8" standalone="no"?><svg xmlns="http://www.w3.org/2000/svg" xmlns:xlink="http://www.w3.org/1999/xlink" contentScriptType="application/ecmascript" contentStyleType="text/css" height="316px" preserveAspectRatio="none" style="width:600px;height:316px;background:#FFFFFF;" version="1.1" viewBox="0 0 600 316" width="600px" zoomAndPan="magnify"><defs><filter height="300%" id="f10oxezal8vxjq" width="300%" x="-1" y="-1"><feGaussianBlur result="blurOut" stdDeviation="2.0"/><feColorMatrix in="blurOut" result="blurOut2" type="matrix" values="0 0 0 0 0 0 0 0 0 0 0 0 0 0 0 0 0 0 .4 0"/><feOffset dx="4.0" dy="4.0" in="blurOut2" result="blurOut3"/><feBlend in="SourceGraphic" in2="blurOut3" mode="normal"/></filter></defs><g><rect fill="#FFFFFF" filter="url(#f10oxezal8vxjq)" height="113.4063" style="stroke:#A80036;stroke-width:1.0;" width="10" x="54" y="99.6094"/><rect fill="#FFFFFF" filter="url(#f10oxezal8vxjq)" height="91.0547" style="stroke:#A80036;stroke-width:1.0;" width="10" x="200" y="121.9609"/><rect fill="#FFFFFF" filter="url(#f10oxezal8vxjq)" height="60.7031" style="stroke:#A80036;stroke-width:1.0;" width="10" x="337" y="152.3125"/><rect fill="#FFFFFF" filter="url(#f10oxezal8vxjq)" height="122.4063" style="stroke:#A80036;stroke-width:1.0;" width="10" x="518" y="99.6094"/><line style="stroke:#A80036;stroke-width:1.0;stroke-dasharray:5.0,5.0;" x1="59" x2="59" y1="89.6094" y2="231.0156"/><line style="stroke:#A80036;stroke-width:1.0;stroke-dasharray:5.0,5.0;" x1="205" x2="205" y1="89.6094" y2="231.0156"/><line style="stroke:#A80036;stroke-width:1.0;stroke-dasharray:5.0,5.0;" x1="341.5" x2="341.5" y1="89.6094" y2="231.0156"/><line style="stroke:#A80036;stroke-width:1.0;stroke-dasharray:5.0,5.0;" x1="523" x2="523" y1="89.6094" y2="231.0156"/><text fill="#000000" font-family="sans-serif" font-size="14" lengthAdjust="spacing" textLength="102" x="5" y="86.5332">Registered User</text><ellipse cx="59" cy="15" fill="#FEFECE" filter="url(#f10oxezal8vxjq)" rx="8" ry="8" style="stroke:#A80036;stroke-width:2.0;"/><path d="M59,23 L59,50 M46,31 L72,31 M59,50 L46,65 M59,50 L72,65 " fill="none" filter="url(#f10oxezal8vxjq)" style="stroke:#A80036;stroke-width:2.0;"/><text fill="#000000" font-family="sans-serif" font-size="14" lengthAdjust="spacing" textLength="102" x="5" y="244.5488">Registered User</text><ellipse cx="59" cy="257.625" fill="#FEFECE" filter="url(#f10oxezal8vxjq)" rx="8" ry="8" style="stroke:#A80036;stroke-width:2.0;"/><path d="M59,265.625 L59,292.625 M46,273.625 L72,273.625 M59,292.625 L46,307.625 M59,292.625 L72,307.625 " fill="none" filter="url(#f10oxezal8vxjq)" style="stroke:#A80036;stroke-width:2.0;"/><rect fill="#FEFECE" filter="url(#f10oxezal8vxjq)" height="49.2188" style="stroke:#A80036;stroke-width:1.5;" width="130" x="138" y="35.3906"/><text fill="#000000" font-family="sans-serif" font-size="14" lengthAdjust="spacing" textLength="116" x="145" y="56.9238">&lt;&lt;C4 Container&gt;&gt;</text><text fill="#000000" font-family="sans-serif" font-size="14" lengthAdjust="spacing" textLength="78" x="164" y="74.5332">Visualization</text><rect fill="#FEFECE" filter="url(#f10oxezal8vxjq)" height="49.2188" style="stroke:#A80036;stroke-width:1.5;" width="130" x="138" y="230.0156"/><text fill="#000000" font-family="sans-serif" font-size="14" lengthAdjust="spacing" textLength="116" x="145" y="251.5488">&lt;&lt;C4 Container&gt;&gt;</text><text fill="#000000" font-family="sans-serif" font-size="14" lengthAdjust="spacing" textLength="78" x="164" y="269.1582">Visualization</text><rect fill="#FEFECE" filter="url(#f10oxezal8vxjq)" height="49.2188" style="stroke:#A80036;stroke-width:1.5;" width="83" x="298.5" y="35.3906"/><text fill="#000000" font-family="sans-serif" font-size="14" lengthAdjust="spacing" textLength="69" x="305.5" y="56.9238">&lt;&lt;REST&gt;&gt;</text><text fill="#000000" font-family="sans-serif" font-size="14" lengthAdjust="spacing" textLength="21" x="329.5" y="74.5332">API</text><rect fill="#FEFECE" filter="url(#f10oxezal8vxjq)" height="49.2188" style="stroke:#A80036;stroke-width:1.5;" width="83" x="298.5" y="230.0156"/><text fill="#000000" font-family="sans-serif" font-size="14" lengthAdjust="spacing" textLength="69" x="305.5" y="251.5488">&lt;&lt;REST&gt;&gt;</text><text fill="#000000" font-family="sans-serif" font-size="14" lengthAdjust="spacing" textLength="21" x="329.5" y="269.1582">API</text><rect fill="#FEFECE" filter="url(#f10oxezal8vxjq)" height="49.2188" style="stroke:#A80036;stroke-width:1.5;" width="130" x="456" y="35.3906"/><text fill="#000000" font-family="sans-serif" font-size="14" lengthAdjust="spacing" textLength="116" x="463" y="56.9238">&lt;&lt;C4 Container&gt;&gt;</text><text fill="#000000" font-family="sans-serif" font-size="14" lengthAdjust="spacing" textLength="88" x="477" y="74.5332">SocialNetwork</text><rect fill="#FEFECE" filter="url(#f10oxezal8vxjq)" height="49.2188" style="stroke:#A80036;stroke-width:1.5;" width="130" x="456" y="230.0156"/><text fill="#000000" font-family="sans-serif" font-size="14" lengthAdjust="spacing" textLength="116" x="463" y="251.5488">&lt;&lt;C4 Container&gt;&gt;</text><text fill="#000000" font-family="sans-serif" font-size="14" lengthAdjust="spacing" textLength="88" x="477" y="269.1582">SocialNetwork</text><rect fill="#FFFFFF" filter="url(#f10oxezal8vxjq)" height="113.4063" style="stroke:#A80036;stroke-width:1.0;" width="10" x="54" y="99.6094"/><rect fill="#FFFFFF" filter="url(#f10oxezal8vxjq)" height="91.0547" style="stroke:#A80036;stroke-width:1.0;" width="10" x="200" y="121.9609"/><rect fill="#FFFFFF" filter="url(#f10oxezal8vxjq)" height="60.7031" style="stroke:#A80036;stroke-width:1.0;" width="10" x="337" y="152.3125"/><rect fill="#FFFFFF" filter="url(#f10oxezal8vxjq)" height="122.4063" style="stroke:#A80036;stroke-width:1.0;" width="10" x="518" y="99.6094"/><polygon fill="#A80036" points="188,117.9609,198,121.9609,188,125.9609,192,121.9609" style="stroke:#A80036;stroke-width:1.0;"/><line style="stroke:#A80036;stroke-width:1.0;" x1="64" x2="194" y1="121.9609" y2="121.9609"/><text fill="#000000" font-family="sans-serif" font-size="13" lengthAdjust="spacing" textLength="117" x="71" y="117.1045">asks for the network</text><polygon fill="#A80036" points="325,148.3125,335,152.3125,325,156.3125,329,152.3125" style="stroke:#A80036;stroke-width:1.0;"/><line style="stroke:#A80036;stroke-width:1.0;" x1="210" x2="331" y1="152.3125" y2="152.3125"/><text fill="#000000" font-family="sans-serif" font-size="13" lengthAdjust="spacing" textLength="108" x="217" y="147.4561">GET Relationships</text><polygon fill="#A80036" points="506,178.6641,516,182.6641,506,186.6641,510,182.6641" style="stroke:#A80036;stroke-width:1.0;"/><line style="stroke:#A80036;stroke-width:1.0;" x1="347" x2="512" y1="182.6641" y2="182.6641"/><text fill="#000000" font-family="sans-serif" font-size="13" lengthAdjust="spacing" textLength="147" x="354" y="177.8076">GetNetwork(email, depth)</text><polygon fill="#A80036" points="353,209.0156,343,213.0156,353,217.0156,349,213.0156" style="stroke:#A80036;stroke-width:1.0;"/><line style="stroke:#A80036;stroke-width:1.0;stroke-dasharray:2.0,2.0;" x1="347" x2="517" y1="213.0156" y2="213.0156"/><text fill="#000000" font-family="sans-serif" font-size="13" lengthAdjust="spacing" textLength="91" x="359" y="208.1592">response JSON</text><!--MD5=[f08c0c8c0d8fb7f2282b94d43d3156b9]
@startuml

actor "Registered User" as UNU
participant "<<C4 Container>>\nVisualization" as V
participant "<<REST>>\nAPI" as API
participant "<<C4 Container>>\nSocialNetwork" as SN

activate SN

activate UNU

UNU->V:asks for the network

activate V
V -> API: GET Relationships

activate API
API -> SN: GetNetwork(email, depth)

SN - -> API : response JSON
deactivate API
deactivate V
deactivate UNU

@enduml

PlantUML version 1.2021.7(Sun May 23 13:40:07 BST 2021)
(GPL source distribution)
Java Runtime: Java(TM) SE Runtime Environment
JVM: Java HotSpot(TM) 64-Bit Server VM
Default Encoding: Cp1252
Language: en
Country: US
--></g></svg>