<?xml version="1.0" encoding="UTF-8" standalone="no"?><svg xmlns="http://www.w3.org/2000/svg" xmlns:xlink="http://www.w3.org/1999/xlink" contentScriptType="application/ecmascript" contentStyleType="text/css" height="286px" preserveAspectRatio="none" style="width:449px;height:286px;background:#FFFFFF;" version="1.1" viewBox="0 0 449 286" width="449px" zoomAndPan="magnify"><defs><filter height="300%" id="fnu5esb2xmdxz" width="300%" x="-1" y="-1"><feGaussianBlur result="blurOut" stdDeviation="2.0"/><feColorMatrix in="blurOut" result="blurOut2" type="matrix" values="0 0 0 0 0 0 0 0 0 0 0 0 0 0 0 0 0 0 .4 0"/><feOffset dx="4.0" dy="4.0" in="blurOut2" result="blurOut3"/><feBlend in="SourceGraphic" in2="blurOut3" mode="normal"/></filter></defs><g><rect fill="#FFFFFF" filter="url(#fnu5esb2xmdxz)" height="92.0547" style="stroke:#A80036;stroke-width:1.0;" width="10" x="54" y="99.6094"/><rect fill="#FFFFFF" filter="url(#fnu5esb2xmdxz)" height="30.3516" style="stroke:#A80036;stroke-width:1.0;" width="10" x="191" y="121.9609"/><rect fill="#FFFFFF" filter="url(#fnu5esb2xmdxz)" height="30.3516" style="stroke:#A80036;stroke-width:1.0;" width="10" x="367" y="152.3125"/><line style="stroke:#A80036;stroke-width:1.0;stroke-dasharray:5.0,5.0;" x1="59" x2="59" y1="89.6094" y2="200.6641"/><line style="stroke:#A80036;stroke-width:1.0;stroke-dasharray:5.0,5.0;" x1="195.5" x2="195.5" y1="89.6094" y2="200.6641"/><line style="stroke:#A80036;stroke-width:1.0;stroke-dasharray:5.0,5.0;" x1="372" x2="372" y1="89.6094" y2="200.6641"/><text fill="#000000" font-family="sans-serif" font-size="14" lengthAdjust="spacing" textLength="102" x="5" y="86.5332">Registered User</text><ellipse cx="59" cy="15" fill="#FEFECE" filter="url(#fnu5esb2xmdxz)" rx="8" ry="8" style="stroke:#A80036;stroke-width:2.0;"/><path d="M59,23 L59,50 M46,31 L72,31 M59,50 L46,65 M59,50 L72,65 " fill="none" filter="url(#fnu5esb2xmdxz)" style="stroke:#A80036;stroke-width:2.0;"/><text fill="#000000" font-family="sans-serif" font-size="14" lengthAdjust="spacing" textLength="102" x="5" y="214.1973">Registered User</text><ellipse cx="59" cy="227.2734" fill="#FEFECE" filter="url(#fnu5esb2xmdxz)" rx="8" ry="8" style="stroke:#A80036;stroke-width:2.0;"/><path d="M59,235.2734 L59,262.2734 M46,243.2734 L72,243.2734 M59,262.2734 L46,277.2734 M59,262.2734 L72,277.2734 " fill="none" filter="url(#fnu5esb2xmdxz)" style="stroke:#A80036;stroke-width:2.0;"/><rect fill="#FEFECE" filter="url(#fnu5esb2xmdxz)" height="49.2188" style="stroke:#A80036;stroke-width:1.5;" width="83" x="152.5" y="35.3906"/><text fill="#000000" font-family="sans-serif" font-size="14" lengthAdjust="spacing" textLength="69" x="159.5" y="56.9238">&lt;&lt;REST&gt;&gt;</text><text fill="#000000" font-family="sans-serif" font-size="14" lengthAdjust="spacing" textLength="21" x="183.5" y="74.5332">API</text><rect fill="#FEFECE" filter="url(#fnu5esb2xmdxz)" height="49.2188" style="stroke:#A80036;stroke-width:1.5;" width="83" x="152.5" y="199.6641"/><text fill="#000000" font-family="sans-serif" font-size="14" lengthAdjust="spacing" textLength="69" x="159.5" y="221.1973">&lt;&lt;REST&gt;&gt;</text><text fill="#000000" font-family="sans-serif" font-size="14" lengthAdjust="spacing" textLength="21" x="183.5" y="238.8066">API</text><rect fill="#FEFECE" filter="url(#fnu5esb2xmdxz)" height="49.2188" style="stroke:#A80036;stroke-width:1.5;" width="130" x="305" y="35.3906"/><text fill="#000000" font-family="sans-serif" font-size="14" lengthAdjust="spacing" textLength="116" x="312" y="56.9238">&lt;&lt;C4 Container&gt;&gt;</text><text fill="#000000" font-family="sans-serif" font-size="14" lengthAdjust="spacing" textLength="88" x="326" y="74.5332">SocialNetwork</text><rect fill="#FEFECE" filter="url(#fnu5esb2xmdxz)" height="49.2188" style="stroke:#A80036;stroke-width:1.5;" width="130" x="305" y="199.6641"/><text fill="#000000" font-family="sans-serif" font-size="14" lengthAdjust="spacing" textLength="116" x="312" y="221.1973">&lt;&lt;C4 Container&gt;&gt;</text><text fill="#000000" font-family="sans-serif" font-size="14" lengthAdjust="spacing" textLength="88" x="326" y="238.8066">SocialNetwork</text><rect fill="#FFFFFF" filter="url(#fnu5esb2xmdxz)" height="92.0547" style="stroke:#A80036;stroke-width:1.0;" width="10" x="54" y="99.6094"/><rect fill="#FFFFFF" filter="url(#fnu5esb2xmdxz)" height="30.3516" style="stroke:#A80036;stroke-width:1.0;" width="10" x="191" y="121.9609"/><rect fill="#FFFFFF" filter="url(#fnu5esb2xmdxz)" height="30.3516" style="stroke:#A80036;stroke-width:1.0;" width="10" x="367" y="152.3125"/><polygon fill="#A80036" points="179,117.9609,189,121.9609,179,125.9609,183,121.9609" style="stroke:#A80036;stroke-width:1.0;"/><line style="stroke:#A80036;stroke-width:1.0;" x1="64" x2="185" y1="121.9609" y2="121.9609"/><text fill="#000000" font-family="sans-serif" font-size="13" lengthAdjust="spacing" textLength="108" x="71" y="117.1045">GET Relationships</text><polygon fill="#A80036" points="355,148.3125,365,152.3125,355,156.3125,359,152.3125" style="stroke:#A80036;stroke-width:1.0;"/><line style="stroke:#A80036;stroke-width:1.0;" x1="196" x2="361" y1="152.3125" y2="152.3125"/><text fill="#000000" font-family="sans-serif" font-size="13" lengthAdjust="spacing" textLength="147" x="203" y="147.4561">GetNetwork(email, depth)</text><polygon fill="#A80036" points="75,178.6641,65,182.6641,75,186.6641,71,182.6641" style="stroke:#A80036;stroke-width:1.0;"/><line style="stroke:#A80036;stroke-width:1.0;stroke-dasharray:2.0,2.0;" x1="69" x2="371" y1="182.6641" y2="182.6641"/><text fill="#000000" font-family="sans-serif" font-size="13" lengthAdjust="spacing" textLength="91" x="81" y="177.8076">response JSON</text><!--MD5=[926d1b8488dd69d52b6a05a77dae36f0]
@startuml

actor "Registered User" as UNU
participant "<<REST>>\nAPI" as API
participant "<<C4 Container>>\nSocialNetwork" as SN

activate UNU
UNU -> API: GET Relationships

activate API
API -> SN: GetNetwork(email, depth)
deactivate API

activate SN
SN - -> UNU : response JSON
deactivate SN

@enduml

PlantUML version 1.2021.7(Sun May 23 13:40:07 BST 2021)
(GPL source distribution)
Java Runtime: Java(TM) SE Runtime Environment
JVM: Java HotSpot(TM) 64-Bit Server VM
Default Encoding: Cp1252
Language: en
Country: US
--></g></svg>